<svg width="18" height="18" viewBox="0 0 18 18" fill="none" xmlns="http://www.w3.org/2000/svg">
<path d="M9 1.90735e-06C13.9706 1.90735e-06 18 4.02944 18 9C18 13.9706 13.9706 18 9 18C4.02944 18 0 13.9706 0 9C0 4.02944 4.02944 1.90735e-06 9 1.90735e-06ZM9.00098 5C8.73929 5 8.49294 5.10494 8.31348 5.28711L4.25 9.48731C4.08662 9.65706 4.0001 9.87714 4 10.0996C4 10.2234 4.02734 10.3441 4.07812 10.46C4.22702 10.788 4.5653 11 4.9375 11H13.0635C13.4345 11 13.7745 10.7863 13.9229 10.46C14.0693 10.133 14.0036 9.75097 13.751 9.48731L9.6875 5.28711C9.50942 5.10449 9.26254 5.00007 9.00098 5Z" fill="#343434"/>
</svg>
