<svg width="62" height="18" viewBox="0 0 62 18" fill="none" xmlns="http://www.w3.org/2000/svg">
<rect width="62" height="18" rx="9" fill="#343434"/>
<path d="M5.84 5.52H11.696V12H9.956V7.104H7.58V12H5.84V5.52ZM16.4592 12.18C15.7952 12.18 15.1952 12.032 14.6592 11.736C14.1232 11.44 13.7032 11.032 13.3992 10.512C13.1032 9.984 12.9552 9.4 12.9552 8.76C12.9552 7.776 13.2872 6.96 13.9512 6.312C14.6152 5.664 15.4512 5.34 16.4592 5.34C17.4592 5.34 18.2912 5.664 18.9552 6.312C19.6192 6.96 19.9512 7.776 19.9512 8.76C19.9512 9.736 19.6152 10.552 18.9432 11.208C18.2792 11.856 17.4512 12.18 16.4592 12.18ZM16.4592 10.536C16.9632 10.536 17.3752 10.372 17.6952 10.044C18.0152 9.708 18.1752 9.28 18.1752 8.76C18.1752 8.24 18.0152 7.816 17.6952 7.488C17.3752 7.152 16.9592 6.984 16.4472 6.984C15.9432 6.984 15.5312 7.152 15.2112 7.488C14.8912 7.816 14.7312 8.24 14.7312 8.76C14.7312 9.016 14.7712 9.256 14.8512 9.48C14.9392 9.704 15.0592 9.892 15.2112 10.044C15.3632 10.196 15.5432 10.316 15.7512 10.404C15.9672 10.492 16.2032 10.536 16.4592 10.536ZM24.695 5.52H26.399V12H24.695V9.9C24.327 10.02 23.935 10.08 23.519 10.08C22.687 10.08 22.023 9.836 21.527 9.348C21.039 8.852 20.795 8.184 20.795 7.344V5.52H22.511V7.368C22.511 8.16 22.891 8.556 23.651 8.556C24.051 8.556 24.399 8.472 24.695 8.304V5.52ZM33.3742 5.508H34.6822V11.988H33.3022L33.1582 11.412C32.5662 11.924 31.8662 12.18 31.0582 12.18C30.0822 12.18 29.2702 11.856 28.6222 11.208C27.9822 10.552 27.6622 9.732 27.6622 8.748C27.6622 7.772 27.9822 6.96 28.6222 6.312C29.2702 5.664 30.0822 5.34 31.0582 5.34C31.8822 5.34 32.5902 5.604 33.1822 6.132L33.3742 5.508ZM29.9302 10.02C30.2662 10.356 30.6862 10.524 31.1902 10.524C31.7022 10.524 32.1262 10.356 32.4622 10.02C32.7982 9.684 32.9662 9.26 32.9662 8.748C32.9662 8.236 32.7982 7.812 32.4622 7.476C32.1262 7.14 31.7062 6.972 31.2022 6.972C30.8662 6.972 30.5622 7.052 30.2902 7.212C30.0262 7.364 29.8182 7.576 29.6662 7.848C29.5142 8.112 29.4382 8.412 29.4382 8.748C29.4382 9.26 29.6022 9.684 29.9302 10.02ZM41.6833 5.52V7.092H39.5713V12H37.8553V7.092H35.7433V5.52H41.6833ZM45.6857 12.18C45.0217 12.18 44.4217 12.032 43.8857 11.736C43.3497 11.44 42.9297 11.032 42.6257 10.512C42.3297 9.984 42.1817 9.4 42.1817 8.76C42.1817 7.776 42.5137 6.96 43.1777 6.312C43.8417 5.664 44.6777 5.34 45.6857 5.34C46.6857 5.34 47.5177 5.664 48.1817 6.312C48.8457 6.96 49.1777 7.776 49.1777 8.76C49.1777 9.736 48.8417 10.552 48.1697 11.208C47.5057 11.856 46.6777 12.18 45.6857 12.18ZM45.6857 10.536C46.1897 10.536 46.6017 10.372 46.9217 10.044C47.2417 9.708 47.4017 9.28 47.4017 8.76C47.4017 8.24 47.2417 7.816 46.9217 7.488C46.6017 7.152 46.1857 6.984 45.6737 6.984C45.1697 6.984 44.7577 7.152 44.4377 7.488C44.1177 7.816 43.9577 8.24 43.9577 8.76C43.9577 9.016 43.9977 9.256 44.0777 9.48C44.1657 9.704 44.2857 9.892 44.4377 10.044C44.5897 10.196 44.7697 10.316 44.9777 10.404C45.1937 10.492 45.4297 10.536 45.6857 10.536ZM56.3936 12H54.2816L52.1936 8.904V12H50.4416V5.52H52.1936V8.4L54.1616 5.52H56.1536L53.9576 8.616L56.3936 12Z" fill="#E7E7E7"/>
</svg>
