<svg width="62" height="18" viewBox="0 0 62 18" fill="none" xmlns="http://www.w3.org/2000/svg">
<rect width="62" height="18" rx="9" fill="#343434"/>
<path d="M17.792 12H15.68L13.592 8.904V12H11.84V5.52H13.592V8.4L15.56 5.52H17.552L15.356 8.616L17.792 12ZM18.5548 4.656V3.024H20.3068V4.656H18.5548ZM18.5548 12V5.52H20.3068V12H18.5548ZM26.0924 5.52H27.8444V12H26.0924V9.516H23.7404V12H21.9884V5.52H23.7404V7.92H26.0924V5.52ZM35.8116 8.736C35.8116 8.904 35.7996 9.076 35.7756 9.252H30.8796C30.9516 9.692 31.1236 10.032 31.3956 10.272C31.6756 10.504 32.0316 10.62 32.4636 10.62C32.7596 10.62 33.0276 10.556 33.2676 10.428C33.5076 10.292 33.6956 10.108 33.8316 9.876H35.6796C35.4396 10.58 35.0316 11.14 34.4556 11.556C33.8796 11.972 33.2156 12.18 32.4636 12.18C31.5036 12.18 30.7036 11.852 30.0636 11.196C29.4236 10.54 29.1036 9.728 29.1036 8.76C29.1036 8.376 29.1556 8.008 29.2596 7.656C29.3716 7.304 29.5276 6.988 29.7276 6.708C29.9356 6.428 30.1756 6.188 30.4476 5.988C30.7196 5.78 31.0276 5.62 31.3716 5.508C31.7156 5.396 32.0796 5.34 32.4636 5.34C33.1116 5.34 33.6916 5.492 34.2036 5.796C34.7236 6.1 35.1196 6.512 35.3916 7.032C35.6716 7.552 35.8116 8.12 35.8116 8.736ZM32.4636 6.828C32.0716 6.828 31.7396 6.936 31.4676 7.152C31.2036 7.368 31.0236 7.668 30.9276 8.052H34.0596C33.9796 7.788 33.8636 7.568 33.7116 7.392C33.5596 7.208 33.3756 7.068 33.1596 6.972C32.9516 6.876 32.7196 6.828 32.4636 6.828ZM42.7228 10.392H43.5628V13.488H41.9788V12H37.0588V5.52H38.7748V10.392H41.0068V5.52H42.7228V10.392ZM47.6592 7.296C48.4112 7.296 49.0152 7.512 49.4712 7.944C49.9272 8.376 50.1552 8.944 50.1552 9.648C50.1552 10.352 49.9272 10.92 49.4712 11.352C49.0152 11.784 48.4112 12 47.6592 12H44.8752V5.52H46.5912V7.296H47.6592ZM47.4792 10.548C47.7752 10.548 48.0072 10.468 48.1752 10.308C48.3432 10.148 48.4272 9.932 48.4272 9.66C48.4272 9.38 48.3432 9.16 48.1752 9C48.0072 8.832 47.7752 8.748 47.4792 8.748H46.5912V10.548H47.4792Z" fill="#E7E7E7"/>
</svg>
