<svg width="15" height="15" viewBox="0 0 15 15" fill="none" xmlns="http://www.w3.org/2000/svg">
<path d="M9.77146 0.0722626C10.3243 -0.062269 10.9582 0.0294126 11.5537 0.0410126C12.4491 0.058558 13.3429 0.0986564 14.2383 0.116208C14.8956 0.128348 15.0283 0.258032 14.9961 0.835934C14.9252 2.14214 14.876 3.44996 14.8008 4.75586C14.7791 5.12211 14.5875 8.44243 14.5361 10.5312C14.5176 11.3498 14.464 12.166 14.415 12.9785C14.3767 13.6411 14.2321 13.8052 13.5058 13.8926C11.8756 14.0817 10.2456 14.2631 8.60935 14.4131C7.20008 14.5406 5.78554 14.6172 4.37791 14.7217C3.29428 14.8029 2.2141 14.8924 1.13377 14.9893C0.347229 15.0605 -0.0348189 14.778 0.00193164 14.0732C0.0730358 12.7633 0.184241 11.4597 0.277322 10.1514C0.259742 10.1501 0.246073 10.1452 0.237283 10.1445C0.372015 6.07749 0.0803213 3.54218 0.17283 1.18554C0.196865 0.599316 0.368925 0.417955 1.05564 0.389645C2.57947 0.328324 4.11205 0.33264 5.6367 0.259763C7.01499 0.195798 8.40504 0.403988 9.77146 0.0722626ZM3.2031 3.93945V7.93359H5.20799C5.20799 8.17988 5.16956 8.41144 5.09275 8.62695C5.01598 8.84227 4.9005 9.04198 4.74705 9.22656C4.60879 9.39589 4.41667 9.53482 4.17088 9.64258C3.94045 9.75032 3.67147 9.8198 3.36424 9.85058V11.9746C4.16301 11.8976 4.86182 11.6741 5.46092 11.3047C6.07532 10.9353 6.54457 10.4357 6.86717 9.80468C7.2051 9.15823 7.37397 8.41903 7.374 7.58789V3.93945H3.2031ZM8.82615 3.93945V7.93359H10.8301C10.8301 8.27218 10.7612 8.58038 10.623 8.85742C10.5002 9.11902 10.3008 9.34266 10.0244 9.52734C9.74788 9.69667 9.40916 9.8044 9.00974 9.85058V11.9746C10.2232 11.8669 11.1911 11.4206 11.9131 10.6357C12.6504 9.85073 13.0195 8.83464 13.0195 7.58789V3.93945H8.82615Z" fill="#E7E7E7"/>
</svg>
