<svg width="18" height="18" viewBox="0 0 18 18" fill="none" xmlns="http://www.w3.org/2000/svg">
<path fill-rule="evenodd" clip-rule="evenodd" d="M14.5869 0C14.6478 0.00658853 14.7088 0.0131771 14.7697 0.0197854C14.9492 0.211862 14.3517 2.22129 14.1603 2.31488C14.1196 2.32148 14.079 2.32807 14.0384 2.33467C13.9733 2.30258 13.9533 2.29808 13.9165 2.23574C13.8186 2.10621 13.9299 1.84033 13.9774 1.70154C14.1246 1.27199 14.2969 0.269536 14.5869 0Z" fill="#343434"/>
<path fill-rule="evenodd" clip-rule="evenodd" d="M17.0451 1.10798C17.0992 1.12776 17.1534 1.14755 17.2076 1.16733C17.2347 1.18711 17.2618 1.20691 17.2889 1.22669C17.2956 1.25966 17.3024 1.29264 17.3092 1.32562C17.1519 1.6769 16.0651 2.60128 15.7246 2.86887C15.5617 2.99686 15.5042 3.19387 15.237 3.22501C15.1828 3.17885 15.1286 3.13267 15.0745 3.08651C15.0812 3.03376 15.088 2.98099 15.0948 2.92823C15.1875 2.74179 15.3976 2.63272 15.5417 2.49295C16.024 2.02514 16.4965 1.50713 17.0451 1.10798Z" fill="#343434"/>
<path d="M11.6416 2.33496C13.5666 2.30868 15.5933 4.51363 14.4248 6.3711C14.125 6.8474 13.6353 7.25061 13.084 7.47949C11.5866 8.10101 9.59093 7.58445 9.24415 6.27246C7.775 7.02413 6.3051 7.77568 4.83595 8.52735C4.84937 8.5404 4.86257 8.5543 4.87599 8.56738C5.12369 9.0804 5.58876 9.6259 5.36427 10.5059C5.27629 10.7365 5.1876 10.9685 5.09962 11.1992C6.52818 12.2344 7.95817 13.2695 9.38673 14.3047C9.40006 14.2982 9.41344 14.2916 9.42677 14.2852C9.6841 13.5194 11.0143 12.2704 12.2305 12.623C12.9659 12.8364 13.3653 13.2558 13.8555 13.6914C14.3671 14.1461 14.9683 14.9098 14.6484 15.9668C14.141 17.6415 11.5238 18.7348 9.77247 17.4111C8.9493 16.7887 9.07916 15.8157 9.22364 14.7012C7.76795 13.6461 6.31117 12.5902 4.85548 11.5352C4.83538 11.5482 4.81504 11.5612 4.79493 11.5742C4.42801 12.3285 2.73593 12.8286 1.58497 12.4844C0.694357 12.2179 0.213596 11.677 0.0410262 10.7041C-0.265836 8.97226 1.20548 7.44602 2.56056 7.30078C3.37741 7.21342 4.13453 7.81176 4.53126 8.19141C6.06818 7.40014 7.60567 6.60865 9.14259 5.81738C9.0968 4.17591 9.87262 3.14494 10.9502 2.55274C11.1804 2.4802 11.4114 2.40749 11.6416 2.33496ZM11.1133 13.1182C10.5682 13.3613 10.1326 13.9199 9.89454 14.4629C9.20752 16.0308 10.0512 17.0047 11.54 17.1934C12.8237 17.3558 14.2967 15.9013 13.8965 14.6016C13.6392 13.7667 12.7394 12.9802 11.6416 12.9795C11.4656 13.0256 11.2893 13.072 11.1133 13.1182ZM2.15431 7.7959C1.63354 7.98733 1.22204 8.42265 0.955089 8.86426C0.0600187 10.3456 0.663131 11.6768 2.31642 11.9307C3.67908 12.1398 5.19762 10.6683 4.77442 9.31934C4.50236 8.4531 3.64215 7.83998 2.6006 7.7168C2.45186 7.74313 2.30304 7.76957 2.15431 7.7959ZM11.3164 2.84961C10.7308 3.08439 10.2629 3.64994 10.0156 4.21485C9.37652 5.67525 10.0832 6.72648 11.458 6.94531C12.9 7.1747 14.4539 5.72183 13.9981 4.31348C13.7342 3.4984 12.824 2.74052 11.7227 2.75C11.5873 2.78296 11.4518 2.81665 11.3164 2.84961Z" fill="#343434"/>
<path fill-rule="evenodd" clip-rule="evenodd" d="M17.7156 4.01643C17.7697 4.02302 17.8239 4.02962 17.8781 4.03621C17.9187 4.06918 17.9594 4.10217 18 4.13514C18.0021 4.30648 17.9667 4.32382 17.8984 4.41213C17.3677 4.57804 16.5609 5.15969 15.8465 4.94634C15.797 4.83877 15.7465 4.69331 15.8669 4.60999C16.0497 4.57701 16.2326 4.54403 16.4154 4.51106C16.8596 4.40394 17.3884 4.25777 17.7156 4.01643Z" fill="#343434"/>
</svg>
