<svg xmlns="http://www.w3.org/2000/svg" style="display:none">

<symbol id="icon-share" viewBox="0 0 18 18">
<path d="M14.5869 0C14.6478 0.00658853 14.7088 0.0131771 14.7697 0.0197854C14.9492 0.211862 14.3517 2.22129 14.1603 2.31488C14.1196 2.32148 14.079 2.32807 14.0384 2.33467C13.9733 2.30258 13.9533 2.29808 13.9165 2.23574C13.8186 2.10621 13.9299 1.84033 13.9774 1.70154C14.1246 1.27199 14.2969 0.269536 14.5869 0Z"/>
<path d="M17.0451 1.10798C17.0992 1.12776 17.1534 1.14755 17.2076 1.16733C17.2347 1.18711 17.2618 1.20691 17.2889 1.22669C17.2956 1.25966 17.3024 1.29264 17.3092 1.32562C17.1519 1.6769 16.0651 2.60128 15.7246 2.86887C15.5617 2.99686 15.5042 3.19387 15.237 3.22501C15.1828 3.17885 15.1286 3.13267 15.0745 3.08651C15.0812 3.03376 15.088 2.98099 15.0948 2.92823C15.1875 2.74179 15.3976 2.63272 15.5417 2.49295C16.024 2.02514 16.4965 1.50713 17.0451 1.10798Z"/>
<path d="M11.6416 2.33496C13.5666 2.30868 15.5933 4.51363 14.4248 6.3711C14.125 6.8474 13.6353 7.25061 13.084 7.47949C11.5866 8.10101 9.59093 7.58445 9.24415 6.27246C7.775 7.02413 6.3051 7.77568 4.83595 8.52735C4.84937 8.5404 4.86257 8.5543 4.87599 8.56738C5.12369 9.0804 5.58876 9.6259 5.36427 10.5059C5.27629 10.7365 5.1876 10.9685 5.09962 11.1992C6.52818 12.2344 7.95817 13.2695 9.38673 14.3047C9.40006 14.2982 9.41344 14.2916 9.42677 14.2852C9.6841 13.5194 11.0143 12.2704 12.2305 12.623C12.9659 12.8364 13.3653 13.2558 13.8555 13.6914C14.3671 14.1461 14.9683 14.9098 14.6484 15.9668C14.141 17.6415 11.5238 18.7348 9.77247 17.4111C8.9493 16.7887 9.07916 15.8157 9.22364 14.7012C7.76795 13.6461 6.31117 12.5902 4.85548 11.5352C4.83538 11.5482 4.81504 11.5612 4.79493 11.5742C4.42801 12.3285 2.73593 12.8286 1.58497 12.4844C0.694357 12.2179 0.213596 11.677 0.0410262 10.7041C-0.265836 8.97226 1.20548 7.44602 2.56056 7.30078C3.37741 7.21342 4.13453 7.81176 4.53126 8.19141C6.06818 7.40014 7.60567 6.60865 9.14259 5.81738C9.0968 4.17591 9.87262 3.14494 10.9502 2.55274C11.1804 2.4802 11.4114 2.40749 11.6416 2.33496ZM11.1133 13.1182C10.5682 13.3613 10.1326 13.9199 9.89454 14.4629C9.20752 16.0308 10.0512 17.0047 11.54 17.1934C12.8237 17.3558 14.2967 15.9013 13.8965 14.6016C13.6392 13.7667 12.7394 12.9802 11.6416 12.9795C11.4656 13.0256 11.2893 13.072 11.1133 13.1182ZM2.15431 7.7959C1.63354 7.98733 1.22204 8.42265 0.955089 8.86426C0.0600187 10.3456 0.663131 11.6768 2.31642 11.9307C3.67908 12.1398 5.19762 10.6683 4.77442 9.31934C4.50236 8.4531 3.64215 7.83998 2.6006 7.7168C2.45186 7.74313 2.30304 7.76957 2.15431 7.7959ZM11.3164 2.84961C10.7308 3.08439 10.2629 3.64994 10.0156 4.21485C9.37652 5.67525 10.0832 6.72648 11.458 6.94531C12.9 7.1747 14.4539 5.72183 13.9981 4.31348C13.7342 3.4984 12.824 2.74052 11.7227 2.75C11.5873 2.78296 11.4518 2.81665 11.3164 2.84961Z"/>
<path d="M17.7156 4.01643C17.7697 4.02302 17.8239 4.02962 17.8781 4.03621C17.9187 4.06918 17.9594 4.10217 18 4.13514C18.0021 4.30648 17.9667 4.32382 17.8984 4.41213C17.3677 4.57804 16.5609 5.15969 15.8465 4.94634C15.797 4.83877 15.7465 4.69331 15.8669 4.60999C16.0497 4.57701 16.2326 4.54403 16.4154 4.51106C16.8596 4.40394 17.3884 4.25777 17.7156 4.01643Z"/>
</symbol>

<symbol id="icon-button-next-prev" viewBox="0 0 32 32">
<path d="M16 0c8.837 0 16 7.163 16 16s-7.163 16-16 16c-8.837 0-16-7.163-16-16s7.163-16 16-16zM16.002 8.889c-0.465 0-0.903 0.187-1.222 0.51l-7.224 7.467c-0.29 0.302-0.444 0.693-0.444 1.088 0 0.22 0.049 0.435 0.139 0.641 0.265 0.583 0.866 0.96 1.528 0.96h14.446c0.66 0 1.264-0.38 1.528-0.96 0.26-0.581 0.143-1.261-0.306-1.729l-7.224-7.467c-0.317-0.325-0.756-0.51-1.22-0.51z"></path>
</symbol>

<symbol id="icon-quotes-small-part" viewBox="0 0 15 15">
<path d="M9.77146 0.0722626C10.3243 -0.062269 10.9582 0.0294126 11.5537 0.0410126C12.4491 0.058558 13.3429 0.0986564 14.2383 0.116208C14.8956 0.128348 15.0283 0.258032 14.9961 0.835934C14.9252 2.14214 14.876 3.44996 14.8008 4.75586C14.7791 5.12211 14.5875 8.44243 14.5361 10.5312C14.5176 11.3498 14.464 12.166 14.415 12.9785C14.3767 13.6411 14.2321 13.8052 13.5058 13.8926C11.8756 14.0817 10.2456 14.2631 8.60935 14.4131C7.20008 14.5406 5.78554 14.6172 4.37791 14.7217C3.29428 14.8029 2.2141 14.8924 1.13377 14.9893C0.347229 15.0605 -0.0348189 14.778 0.00193164 14.0732C0.0730358 12.7633 0.184241 11.4597 0.277322 10.1514C0.259742 10.1501 0.246073 10.1452 0.237283 10.1445C0.372015 6.07749 0.0803213 3.54218 0.17283 1.18554C0.196865 0.599316 0.368925 0.417955 1.05564 0.389645C2.57947 0.328324 4.11205 0.33264 5.6367 0.259763C7.01499 0.195798 8.40504 0.403988 9.77146 0.0722626ZM3.2031 3.93945V7.93359H5.20799C5.20799 8.17988 5.16956 8.41144 5.09275 8.62695C5.01598 8.84227 4.9005 9.04198 4.74705 9.22656C4.60879 9.39589 4.41667 9.53482 4.17088 9.64258C3.94045 9.75032 3.67147 9.8198 3.36424 9.85058V11.9746C4.16301 11.8976 4.86182 11.6741 5.46092 11.3047C6.07532 10.9353 6.54457 10.4357 6.86717 9.80468C7.2051 9.15823 7.37397 8.41903 7.374 7.58789V3.93945H3.2031ZM8.82615 3.93945V7.93359H10.8301C10.8301 8.27218 10.7612 8.58038 10.623 8.85742C10.5002 9.11902 10.3008 9.34266 10.0244 9.52734C9.74788 9.69667 9.40916 9.8044 9.00974 9.85058V11.9746C10.2232 11.8669 11.1911 11.4206 11.9131 10.6357C12.6504 9.85073 13.0195 8.83464 13.0195 7.58789V3.93945H8.82615Z"/>
</symbol>




<symbol id="icon-arrow" viewBox="0 0 32 32">
<path d="M0 0l16.49 32 15.51-22.389-32-9.611z"></path>
</symbol>

<symbol id="icon-circle-m" viewBox="0 0 21 32">
<path d="M20.832 10.756c-0.729-6.155-2.921-8.976-7.545-10.258-4.623-1.281-8.658 0-10.221 2.822-5.111 9.231-2.921 19.745 0 25.131s11.196 4.103 15.090-0.257c3.895-4.361 3.408-11.285 2.677-17.439zM16.452 27.425c-3.408 1.796-8.031 2.565-10.465 0.257s-6.084-9.745-2.921-19.748c1.254-3.961 4.139-5.898 9.493-4.615 5.353 1.282 6.327 6.924 7.057 11.797s0.243 10.514-3.164 12.309zM16.068 16.539c-1.301-0.224-3.449-0.346-3.839 0.885-0.627 1.975-3.061-0.795-7.009-0.698 1.132-0.302 2.793-1.167 2.793-3.405 0-4.103 0.651-1.712 1.625 0.34s0.974 3.418 2.269 0.34c1.296-3.078 2.598-1.712 2.598 0 0 1.436 0.462 2.141 1.564 2.539zM16.068 16.539c0.865 0.148 1.351 0.34 0.706 0.199-0.279-0.060-0.516-0.129-0.745-0.212l0.039 0.012zM4.769 16.738c0.152-0.013 0.304-0.013 0.45-0.013-0.943 0.25-1.521 0.102-0.45 0.013z"></path>
</symbol>

<symbol id="icon-eye" viewBox="0 0 32 32">
<path d="M31.316 3.802c-1.253-1.336-5.924-5.006-15.456-3.402-11.137 1.873-16.124 10.23-15.849 10.451 0.010 4.113 0.498 21.268 15.423 21.149 9.491-0.074 13.165-4.059 13.165-4.059 0-0.001-5.382 1.964-11.040 0.736-4.82-1.042-10.34-4.989-10.191-13.43 0.036 0.018 0.079 0.033 0.123 0.045l0.005 0.001c1.22 0.397 2.451 0.645 3.704 0.764 0.955 0.093 1.911 0.166 2.867 0.102 2.367-0.157 4.712-0.554 7.005-1.43 1.684-0.658 3.121-1.387 4.476-2.234l-0.112 0.065c1.39-0.856 2.59-1.729 3.718-2.683l-0.044 0.036c1.114-0.941 2.016-2.158 2.611-3.754 0.445-1.171 0.392-1.522-0.404-2.362zM17.219 14.327c-0.275 0.147-0.594 0.138-0.913 0.156-0.402 0.029-0.87 0.046-1.342 0.046-2.228 0-4.37-0.371-6.366-1.055l0.138 0.041c-1.677-0.564-3.313-1.331-4.905-2.234-0.116-0.064-0.275-0.102-0.297-0.379 0.084-0.111 0.17-0.269 0.276-0.371 0.371-0.387 0.753-0.773 1.167-1.106 2.335-1.908 4.819-3.395 7.398-4.612 0.742-0.351 1.518-0.627 2.282-0.895 0.32-0.11 0.649-0.221 1.030-0.11-0.052 0.202-0.074 0.378-0.138 0.535-0.275 0.803-0.53 1.605-0.69 2.463-0.179 0.978-0.189 1.955 0.064 2.915 0.172 0.636 0.394 1.226 0.681 1.779 0.456 0.886 0.998 1.67 1.539 2.436 0.064 0.102 0.16 0.184 0.074 0.388zM26.688 9.88c-1.041 0.838-1.624 1.189-2.060 1.198 0.161-0.886 0.404-1.724 0.436-2.637 0.033-0.896-0.063-1.754-0.264-2.602-0.202-0.867-0.605-1.596-0.945-2.454 0.192 0 0.329-0.027 0.456 0.009 0.329 0.092 0.659 0.205 0.988 0.305 1.274 0.426 2.505 1.025 3.684 1.818 0.201 0.14 0.445 0.223 0.55 0.527-0.381 1.143-1.761 2.961-2.844 3.836z"></path>
</symbol>

<symbol id="icon-glasses" viewBox="0 0 28 32">
<path d="M24.392 3.389c-0.048-0.002-0.103-0.052-0.141-0.093-0.129-0.15-0.234-0.324-0.38-0.452-0.963-0.859-2.079-1.493-3.206-2.103-0.606-0.329-1.235-0.589-1.934-0.674-0.622-0.075-1.050 0.175-1.31 0.719-0.43 0.9-0.61 1.865-0.678 2.851-0.015 0.217 0.078 0.448 0.16 0.657 0.068 0.173 0.228 0.256 0.426 0.196 0.225-0.067 0.331-0.203 0.332-0.42-0-0.215-0.024-0.431-0.003-0.647 0.080-0.776 0.178-1.551 0.264-2.33 0.019-0.158 0.119-0.21 0.254-0.249 0.409-0.114 0.767 0.047 1.114 0.209 1.278 0.601 2.486 1.332 3.669 2.099 0.312 0.202 0.622 0.412 0.95 0.581 0.225 0.116 0.328 0.313 0.206 0.527-0.057 0.1-0.123 0.193-0.18 0.293-0.077 0.134-0.174 0.142-0.308 0.084-1.41-0.607-2.709-0.383-3.881 0.582-0.513 0.423-0.995 0.891-1.456 1.372-1.121 1.173-2.108 2.462-2.915 3.866-0.563 0.975-1.179 1.902-1.887 2.775-0.448 0.555-0.87 1.126-1.318 1.681-0.949 1.173-1.901 2.345-2.863 3.508-0.358 0.431-0.74 0.844-1.13 1.243-0.59 0.606-1.228 1.17-1.795 1.797-1.129 1.251-2.165 2.575-2.813 4.153-0.329 0.803-0.445 1.632-0.18 2.483 0.135 0.429 0.334 0.821 0.631 1.159 0.087 0.1 0.144 0.211 0.037 0.325-0.102 0.107-0.173 0.288-0.38 0.203-0.104-0.042-0.202-0.087-0.123-0.237 0.023-0.042 0.002-0.129-0.027-0.176-0.45-0.753-0.893-1.515-1.361-2.259-0.508-0.809-1.012-1.623-1.333-2.536-0.111-0.312-0.137-0.628-0.073-0.952 0.041-0.214 0.133-0.386 0.33-0.503 0.741-0.435 1.471-0.889 2.218-1.315 0.399-0.227 0.82-0.412 1.234-0.613 0.146-0.069 0.22-0.173 0.219-0.339 0.001-0.365-0.24-0.519-0.647-0.376-0.276 0.097-0.56 0.2-0.803 0.358-0.747 0.483-1.495 0.969-2.204 1.502-0.542 0.411-1.030 0.913-1.060 1.651-0.018 0.373 0.045 0.764 0.161 1.119 0.286 0.9 0.77 1.708 1.279 2.497 0.24 0.371 0.46 0.754 0.701 1.123 0.133 0.202 0.284 0.395 0.443 0.578 0.17 0.196 0.363 0.375 0.534 0.569 0.041 0.046 0.070 0.126 0.068 0.187-0.020 0.291 0.156 0.545 0.442 0.606 0.083 0.019 0.178 0.020 0.248 0.060 0.25 0.143 0.44 0.020 0.624-0.129 0.077-0.063 0.145-0.14 0.217-0.21 0.223-0.213 0.255-0.213 0.51-0.042 0.819 0.56 1.67 1.056 2.628 1.344 1.392 0.419 2.759 0.337 4.063-0.298 0.997-0.485 1.86-1.166 2.539-2.124 0.459-0.528 0.824-1.17 1.066-1.875 0.544-1.571 0.529-3.158 0.102-4.749-0.029-0.111-0.085-0.232-0.062-0.334 0.073-0.341-0.026-0.644-0.172-0.934-0.295-0.583-0.529-1.199-1.040-1.659-0.358-0.323-0.649-0.723-0.987-1.071-0.101-0.104-0.127-0.187-0.085-0.317 0.268-0.819 0.8-1.417 1.529-1.847 0.072-0.043 0.213-0.030 0.295 0.009 0.269 0.133 0.522 0.302 0.789 0.437 0.162 0.081 0.302 0.152 0.314 0.362 0.002 0.051 0.065 0.114 0.114 0.146 0.115 0.069 0.24 0.124 0.363 0.178 0.601 0.255 1.228 0.4 1.882 0.38 0.187-0.005 0.41-0.070 0.547-0.188 0.147-0.125 0.274-0.184 0.454-0.177 0.143 0.006 0.288-0 0.432-0.004 1.524-0.055 2.949-0.458 4.229-1.296 1.519-0.995 2.561-2.386 3.148-4.092 0.544-1.575 0.423-3.117-0.45-4.554-0.494-0.813-1.142-1.502-1.872-2.112-0.322-0.27-0.32-0.286-0.1-0.635 0.041-0.066 0.072-0.141 0.115-0.206 0.402-0.608-0.128-1.326-0.72-1.345zM14.746 21.794c0.074 0.273 0.214 0.52 0.152 0.82-0.019 0.091 0.030 0.195 0.055 0.293 0.373 1.398 0.387 2.789-0.091 4.169-0.215 0.621-0.534 1.181-0.938 1.648-0.597 0.844-1.353 1.438-2.231 1.865-1.146 0.558-2.348 0.629-3.568 0.263-0.84-0.255-3.261-1.522-3.955-3.16-0.306-0.722-0.132-1.473 0.157-2.18 0.569-1.387 1.535-2.501 2.47-3.647 2.061-2.527 4.778-3.169 5.48-2.878 0.098 0.041 1.876 0.594 2.469 2.808zM16.866 17.472l-0.357-0.163c0.011-0.027 0.021-0.058 0.031-0.085 0.126 0.042 0.249 0.086 0.374 0.127-0.015 0.041-0.032 0.081-0.049 0.12zM14.46 15.773c0.081 0.152 0.1 0.244-0.052 0.358-0.544 0.399-1.007 0.875-1.334 1.472-0.088 0.157-0.154 0.323-0.229 0.486-0.045 0.098-0.105 0.147-0.219 0.1-0.8-0.333-1.572-0.166-2.334 0.143-0.081 0.032-0.16 0.065-0.239 0.095-0.011 0.005-0.028-0-0.106-0.009 1.37-1.693 2.716-3.356 4.064-5.021 0.018 0.004 0.035 0.009 0.053 0.013-0.006 0.080-0.021 0.156-0.019 0.235 0.004 0.422-0.036 0.849 0.033 1.259 0.044 0.302 0.228 0.587 0.381 0.868zM18.809 17.752c-0.233-0.020-0.466-0.037-0.699-0.057 0.002-0.030 0.005-0.056 0.007-0.086 0.232 0.023 0.467 0.045 0.699 0.067-0.001 0.024-0.004 0.050-0.007 0.076zM26.070 8.262c0.661 1.116 0.885 2.319 0.615 3.584-0.207 0.969-0.61 1.862-1.295 2.657-0.358 0.512-0.836 0.966-1.394 1.329-1.245 0.812-3.399 1.339-5.241 1.18-2.32-0.202-3.309-1.662-3.377-1.75-0.462-0.621-0.492-3.459 1.498-6.112 0.902-1.203 1.766-2.429 2.995-3.331 0.625-0.458 1.326-0.816 2.112-0.69 1.786 0.288 3.631 2.368 4.086 3.132zM8.588 21.328c-0.005 0.208-0.027 0.416-0.012 0.621 0.048 0.675 0.274 1.274 0.762 1.758 0.338 0.335 0.673 0.674 1.007 1.010 0.15 0.149 0.301 0.302 0.451 0.451 0.011-0.005 0.017-0.008 0.020-0.012 0.079-0.14 0.227-0.233 0.397-0.233 0.079 0 0.154 0.020 0.219 0.056l-0.002-0.001c0.228 0.126 0.299 0.367 0.186 0.624-0.082 0.19-0.083 0.192-0.288 0.162-0.935-0.133-1.756-0.514-2.473-1.124-0.51-0.434-1.023-0.864-1.538-1.291-0.25-0.21-0.543-0.302-0.869-0.303-0.024-0.001-0.046-0.008-0.077-0.014 0.069 0.343 0.215 0.609 0.461 0.811 0.173 0.142 0.357 0.265 0.537 0.399 0.353 0.258 0.698 0.525 1.060 0.772 0.8 0.548 1.391 1.26 1.763 2.157 0.092 0.22 0.092 0.22-0.102 0.368-0.195 0.15-0.431 0.138-0.609-0.029-0.158-0.148-0.178-0.396-0.049-0.588 0.020-0.030 0.043-0.055 0.067-0.085l-0.031-0.024c-0.459-0.275-0.919-0.553-1.378-0.828-0.202-0.119-0.395-0.263-0.609-0.353-0.72-0.309-1.452-0.311-2.185-0.025-0.021 0.008-0.037 0.020-0.059 0.031 1.738 1.359 3.467 2.712 5.203 4.069l0.933-1.193c0.029 0.012 0.056 0.019 0.079 0.030 0.429 0.205 0.881 0.287 1.355 0.229 0.249-0.031 0.495-0.085 0.698-0.12-0.001-0.11-0.006-0.234-0.002-0.357 0.015-0.513-0.126-0.983-0.403-1.414-0.067-0.102-0.142-0.2-0.218-0.305l0.933-1.193-5.194-4.063c-0.012 0.002-0.023 0.003-0.033 0.006zM6.262 25.859c0.452 0.001 0.857 0.071 1.226 0.3 0.447 0.272 0.898 0.54 1.348 0.808 0.045 0.028 0.068 0.053 0.061 0.111-0.034 0.245 0.035 0.467 0.177 0.667l-0.152 0.194-2.659-2.080zM10.981 28.268l-0.62 0.793-1.078-0.843c0.043-0.055 0.085-0.113 0.132-0.164 0.010-0.013 0.043-0.019 0.063-0.014 0.379 0.131 0.705 0.041 0.995-0.222 0.012-0.011 0.029-0.020 0.042-0.027 0.153 0.159 0.304 0.316 0.466 0.477zM10.88 27.508c0.156-0.213 0.52-0.238 0.739-0.056-1.348 1.772-1.465 1.919-1.581 2.067l1.226-1.613c-0.131-0.138-0.259-0.27-0.383-0.398zM12.733 28.321c-0.383 0.032-0.725-0.028-1.062-0.182l0.314-0.402 0.747 0.584zM11.256 26.866c-0.223 0.012-0.422 0.082-0.584 0.195-0.215-0.394-0.43-0.783-0.625-1.14 0.387 0.102 0.817 0.216 1.257 0.332-0.070 0.184-0.093 0.392-0.048 0.614zM13.023 27.949l-0.747-0.584 0.315-0.402c0.232 0.287 0.373 0.609 0.432 0.986zM11.914 27.075c-0.222-0.142-0.292-0.493-0.131-0.73 0.157 0.091 0.318 0.182 0.485 0.277l-0.354 0.452zM13.172 25.466l-0.622 0.795c-0.193-0.112-0.38-0.223-0.577-0.339 0.022-0.046 0.047-0.101 0.070-0.157 0.131-0.302 0.118-0.595-0.054-0.873-0.037-0.061-0.039-0.098 0.010-0.147 0.035-0.036 0.062-0.079 0.096-0.122l1.078 0.843zM11.73 24.339l-0.154 0.197c-0.174-0.065-0.352-0.093-0.539-0.051-0.017 0.004-0.037 0.002-0.052 0.012-0.125 0.075-0.205 0.019-0.295-0.076-0.374-0.388-0.768-0.755-1.135-1.152-0.254-0.272-0.392-0.616-0.478-1.008-1.989-1.494-1.126-0.812-0.261-0.132l2.914 2.211z"></path>
</symbol>

<symbol id="icon-half-circle" viewBox="0 0 24 32">
<path d="M6.98 21.345c-0.266 4.474 8.244 7.632 11.702 8.159 3.457 0.526 6.648 0.262 3.989 1.051s-7.18 2.106-13.829 1.053c-6.648-1.052-9.307-10.526-8.776-15.263 0.532-4.736 3.192-9.472 9.308-13.946s14.626-1.316 14.626-1.316l-1.595 8.684c-13.297-2.895-15.158 7.105-15.424 11.578z"></path>
</symbol>

<symbol id="icon-hand" viewBox="0 0 7 32">
<path d="M3.631 18.381l-0.721-6.711-0.455 0.038 0.721 6.711 0.455-0.038zM5.779 31.985l-2.432-20.552 0.452-0.046 2.432 20.552-0.452 0.046zM6.799 31.705l-2.282-19.853 0.452-0.045 2.282 19.853-0.452 0.045zM6.971 24.715l-0.866-7.27 0.452-0.045 0.867 7.27-0.453 0.045zM1.889 5.445c0.709-1.213 0.143-3.73 0.117-4.569s0.393-1.118 0.601 0.001 0.071 2.331 0.251 2.611c0.179 0.28 0.607 0.185 0.564-1.213s0.004-2.702 0.192-2.143c0.187 0.559 0.334 2.517 0.435 2.981s0.708 0.745 0.662-0.744c-0.046-1.489 0.275-2.237 0.376-1.678 0.104 0.559 0.326 2.237 0.326 2.237s-0.216-1.493 0.209-1.583c0.425-0.091 0.491 2.051 0.43 2.796s-0.848 3.076-0.915 3.73c-0.067 0.653 0.222 1.678-0.628 1.863-0.853 0.185-1.614 0.559-2.434-1.024s-1.598-1.772-1.809-3.076c-0.211-1.304-0.248-2.517 0.475-1.304s0.658 1.954 1.147 1.115z"></path>
</symbol>

<symbol id="icon-letters-a" viewBox="0 0 21 32">
<path d="M12.247 2.468c0.859-1.259 1.933-0.42 4.295-0.42 2.361 0 1.932 8.18 0.214 11.117s-5.797-1.049-7.622-1.573c-3.714-1.064-7.193 0.105-8.481 3.881s-0.644 9.439 1.718 13.424 11.809 0.21 12.668 0c0.859-0.21 3.221 3.985 3.221 2.936s0.429-5.454 1.073-8.599c0.644-3.146 2.362-12.794 1.932-16.988-0.43-4.196-5.797-6.955-7.515-6.084-5.797 2.937-2.362 3.566-1.503 2.307z"></path>
</symbol>

<symbol id="icon-letters-i-am" viewBox="0 0 14 32">
<path d="M3.501 6.966c0 5.225 6.345 4.572 6.345 4.572l-9.846 20.462h1.751l7.657-12.191 2.189 7.401h1.969l0.656-27.211c-6.345 0-10.721 1.742-10.721 6.966z"></path>
</symbol>

<symbol id="icon-letters-m-lines" viewBox="0 0 20 32">
<path d="M7.985 18.263l5.357 4.338 3.125-8.675 0.223 12.784 1.785-1.371 1.117-25.339-9.151 11.414-1.785-1.369-0.67 8.219zM0.787 32l-0.787-0.080 2.678-28.080 0.788 0.081-2.678 28.079zM2.349 31.543l-0.787-0.079 2.455-25.797 0.787 0.080-2.455 25.796zM4.135 31.543l-0.787-0.079 2.232-23.515 0.786 0.080-2.232 23.513zM5.921 31.315l-0.787-0.078 2.009-21.688 0.787 0.074-2.009 21.693zM7.259 31.544l-0.786-0.074 1.116-12.327 0.787 0.075-1.116 12.325z"></path>
</symbol>

<symbol id="icon-letters-m-solid" viewBox="0 0 22 32">
<path d="M0 30.494l4.557 1.506 1.517-10.918 2.468 4.707 8.732-8.659 0.759 12.989 1.709-1.695 2.659-23.905c0-0.001-3.987 1.882-7.024 4.705s-4.366 8.659-4.366 8.659-0.949-6.965-1.898-9.978c-0.949-3.010-3.037-7.905-3.037-7.905l-6.075 30.494z"></path>
</symbol>

<symbol id="icon-letters-n" viewBox="0 0 18 32">
<path d="M1.496 29.534l1.497 0.245 0.749-29.291h-3.742l1.496 29.046zM5.182 8.542h-0.886v-8.542h0.886v8.544zM7.675 4.882h-0.885v-4.394h0.885v4.394zM10.17 5.614h-0.886v-4.882h0.886v4.882zM12.165 8.542h-0.885v-8.054h0.885v8.056zM13.661 15.158l-0.885-0.043 0.748-14.402 0.886 0.043-0.748 14.401zM14.909 30.774l-0.886-0.043 1.496-30.022 0.885 0.042-1.496 30.023zM16.654 32l-0.886-0.048 1.747-31.733 0.885 0.049-1.746 31.732z"></path>
</symbol>

<symbol id="icon-letters-t" viewBox="0 0 30 32">
<path d="M28.501 31.249l-0.748 0.305-11.049-26.922 0.748-0.305 11.049 26.922zM25.152 27.293l-0.741 0.32-9.748-22.517 0.741-0.321 9.747 22.517zM8.948 15.541l-6.945 1.235-2.002-4.83 5.972-2.786 2.975 6.381zM11.153 15.015l-0.731 0.341-3.264-6.998 0.731-0.341 3.264 6.998zM18.167 15.001l-0.731 0.341-4.319-9.262 0.731-0.341 4.319 9.262zM13.198 14.562l-0.731 0.341-3.455-7.41 0.731-0.341 3.455 7.41zM15.45 14.013l-0.731 0.341-3.359-7.204 0.731-0.341 3.359 7.204zM23.248 11.379l-0.731 0.341-3.647-7.821 0.731-0.341 3.648 7.821zM24.818 9.908l-0.741 0.32-3.249-7.506 0.741-0.321 3.249 7.506zM29.748 5.842l-3.844 3.046-2.756-6.984 3.914-1.825 2.687 5.763z"></path>
</symbol>

<symbol id="icon-letters-ydachi" viewBox="0 0 37 32">
<path d="M5.071 27.043c-0.134 1.498-0.26 2.986-0.428 4.475-0.017 0.172-0.252 0.318-0.378 0.482-0.184-0.172-0.512-0.335-0.512-0.516-0.002-0.092-0.003-0.201-0.003-0.311 0-0.673 0.044-1.336 0.129-1.986l-0.008 0.076c0.201-1.584 0.201-3.15-0.042-4.717-0.042-0.275-0.168-0.551-0.563-0.353-0.823 0.404-1.545 0.103-1.839-0.8-0.369-1.068-0.672-2.143-1.008-3.21-0.101-0.318-0.269-0.611-0.378-0.921-0.050-0.138-0.025-0.293-0.042-0.439 0.16-0.008 0.403-0.095 0.479-0.017 0.319 0.37 0.713 0.74 0.865 1.196 0.285 0.852 0.403 1.773 0.63 2.651 0.059 0.224 0.26 0.404 0.394 0.611 0.168-0.129 0.361-0.25 0.521-0.396 0.495-0.482 0.604-1.119 0.697-1.773 0.042-0.258-0.050-0.697 0.361-0.576 0.277 0.078 0.504 0.422 0.689 0.689 0.084 0.12 0.033 0.353 0.008 0.534-0.185 1.385 0.109 2.728 0.311 4.088 0.059 0.396 0.051 0.8 0.067 1.205 0.017 0 0.034 0.009 0.050 0.009zM17.296 22.559c1.604 0.542 3.224 0.396 4.845 0.241 0.353-0.034 0.538 0.026 0.437 0.499-0.101 0.499-0.16 1.059-0.025 1.541 0.336 1.283 1.15 1.601 2.166 0.826 0.638-0.491 1.276-0.973 1.906-1.455 0.403-0.31 0.622-0.138 0.848 0.275 0.277 0.499 0.613 0.964 0.982 1.394 0.193 0.224 0.479 0.25 0.655-0.112 0.159-0.31 0.159-0.697-0.16-0.758-0.58-0.103-0.622-0.559-0.831-0.938-0.143-0.258-0.269-0.534-0.453-0.758-0.42-0.516-0.613-0.516-1.1-0.060-0.243 0.232-0.487 0.465-0.756 0.654-0.604 0.43-1.192 0.869-1.839 1.231-0.386 0.215-0.63 0.034-0.663-0.482-0.050-0.818 0.311-1.455 0.663-2.126 0.109-0.198 0.151-0.585 0.034-0.732-0.143-0.181-0.496-0.284-0.731-0.25-0.512 0.069-1.008 0.361-1.511 0.361-1.646 0-3.308 0.258-4.945-0.353-0.21 0.576-0.033 0.826 0.479 0.998zM7.825 7.006c0.168 0.912 0.285 1.833 0.403 2.754 0.151 1.222 0.369 2.445 0.411 3.675 0.092 2.634-0.462 5.199-0.873 7.772-0.143 0.887-0.311 1.764-0.386 2.651-0.034 0.404 0.193 0.783 0.705 0.749 0.521-0.034 0.596-0.525 0.538-0.826-0.252-1.24 0.101-2.419 0.227-3.615 0.159-1.463 0.394-2.927 0.487-4.39 0.143-2.436-0.184-4.863-0.579-7.256-0.126-0.74-0.277-1.48-0.487-2.195-0.118-0.37-0.336-0.792-0.882-0.62 0.151 0.447 0.344 0.861 0.437 1.3zM12.393 22.025c0.042-0.129 0.227-0.215 0.344-0.318 0.126 0.164 0.369 0.37 0.336 0.482-0.143 0.482-0.37 0.938-0.596 1.386-0.033 0.069-0.243 0.043-0.554 0.095 0.176-0.62 0.302-1.136 0.47-1.644zM11.671 21.069c-0.538 0.809-0.714 1.739-0.529 2.668 0.084 0.439 0.411 0.938 0.772 1.17 0.453 0.293 0.857-0.138 1.192-0.491 0.705-0.74 0.579-0.731 1.285-0.008 0.101 0.103 0.185 0.241 0.302 0.275 0.185 0.051 0.378 0.034 0.571 0.043-0.050-0.189-0.075-0.396-0.168-0.55-0.436-0.732-1.083-1.291-1.352-2.178-0.201-0.663-0.781-1.17-1.57-1.42-0.143 0.155-0.361 0.293-0.504 0.491zM36.717 11.765c0.126-0.637 0.319-1.257 0.344-1.894 0.059-1.265 0.026-2.522 0.034-3.787l0.025-5.172c0-0.422-0.101-0.775-0.554-0.912v11.757c0.050 0 0.101 0.009 0.151 0.009zM28.589 19.485c-0.075-0.095-0.386-0.008-0.579 0.043-0.042 0.009-0.076 0.275-0.025 0.353 0.21 0.31 0.445 0.594 0.697 0.869 0.076 0.078 0.243 0.095 0.361 0.078 0.067-0.008 0.126-0.129 0.201-0.224-0.218-0.404-0.403-0.792-0.655-1.119zM34.988 24.581c-0.034-0.035-0.227 0.172-0.344 0.267 0.201 0.258 0.403 0.534 0.63 0.783 0.008 0.008 0.227-0.172 0.462-0.362-0.294-0.293-0.504-0.517-0.748-0.689z"></path>
</symbol>

<symbol id="icon-lines-arrow" viewBox="0 0 32 32">
<path d="M0 0l6.4 1.882 0.914 14.118-7.314-16zM11.886 32l8.228-8.471v-14.118l-6.4-3.763-1.828 26.353zM24.686 20.707l7.314-6.589-6.4-1.883-0.914 8.468z"></path>
</symbol>

<symbol id="icon-lines-four" viewBox="0 0 27 32">
<path d="M0 18.885l4.183-4.196v14.688h-2.615l-1.568-10.491zM7.843 31.475h3.137l0.523-31.475-2.613 7.344-1.046 24.131zM14.117 32l3.138-5.246 1.045-20.983-4.183-5.246v31.475zM21.961 19.934l4.706-9.967-4.706-3.671v13.638z"></path>
</symbol>

<symbol id="icon-lines-four-left" viewBox="0 0 20 32">
<path d="M13.571 0h3.572l2.856 5.954v8.93l-6.428-14.884zM19.286 26.79v-5.953l-8.571-18.606h-4.286l12.857 24.558zM12.857 32l2.858-4.465-13.571-24.56v6.698l10.712 22.326zM5.715 30.512h4.285l-9.286-16.373-0.714 5.21 5.714 11.163z"></path>
</symbol>

<symbol id="icon-lines-two-arrow" viewBox="0 0 41 32">
<path d="M39.967 0l1.176 12-12.931-3.429 11.755-8.571z"></path>
<path d="M0 9.143l4.114 0.571v22.286l-4.114-10.286v-12.571z"></path>
<path d="M7.641 8l4.114 1.143 0.588 16.571-4.702 5.143v-22.857z"></path>
</symbol>

<symbol id="icon-rhombus" viewBox="0 0 32 32">
<path d="M21.339 0l10.661 16.010-16.48 15.99-15.52-21.638 21.339-10.362z"></path>
</symbol>

<symbol id="icon-text-bajano" viewBox="0 0 5 32">
<path d="M0.001 22.742c0.124-0.007 0.199 0.038 0.222 0.171 0.034 0.199 0.085 0.396 0.123 0.595 0.059 0.306-0.086 0.62-0.345 0.75v-0.408c0.159-0.177 0.159-0.452 0-0.7v-0.408zM0.001 28.107h0.221c0.040-0.083 0.073-0.151 0.112-0.229 0.232 0.038 0.432 0.115 0.614 0.255 0.147 0.113 0.152 0.107 0.368 0.040-0.209-0.14-0.39-0.261-0.572-0.383-0.222-0.148-0.442-0.185-0.66 0.011-0.018 0.015-0.055 0.008-0.083 0.013v0.292zM0.001 7.93c0.166 0.145 0.166 0.179 0 0.292v0.408c0.191-0.044 0.319-0.17 0.328-0.357 0.011-0.242-0.041-0.48-0.222-0.664-0.022-0.023-0.069-0.021-0.106-0.029v0.35zM0.001 26.066c0.143-0.005 0.288-0.005 0.431-0.015 0.097-0.007 0.165-0.062 0.163-0.166-0.002-0.108-0.089-0.117-0.168-0.109-0.142 0.015-0.284 0.038-0.426 0.057v0.233zM0.001 31.838c0.181 0.002 0.363 0.012 0.543-0.001 0.047-0.004 0.090-0.078 0.135-0.119-0.045-0.039-0.088-0.109-0.134-0.113-0.181-0.012-0.362-0.001-0.544 0v0.233zM0.001 29.273c0.151 0.168 0.302 0.334 0.471 0.521 0.018-0.057 0.055-0.111 0.041-0.137-0.13-0.255-0.291-0.487-0.511-0.675-0.001 0.071-0.001 0.156-0.001 0.24 0 0.018 0 0.035 0 0.053v-0.003zM0.001 13.761c0.104 0.002 0.209 0.011 0.313 0.007 0.197-0.007 0.217-0.044 0.165-0.273l-0.477 0.033c-0.001 0.078-0.001 0.156-0.001 0.233zM0.001 30.323c0.135-0.002 0.27 0.001 0.403-0.010 0.039-0.004 0.104-0.049 0.104-0.075 0-0.050-0.026-0.123-0.063-0.143-0.063-0.035-0.144-0.047-0.219-0.047-0.075 0-0.151 0.028-0.227 0.044 0.001 0.077 0.001 0.154 0.001 0.232zM0.001 12.77c0.085 0.069 0.17 0.14 0.256 0.208 0.078 0.062 0.1 0.192 0.23 0.196-0.010-0.199-0.249-0.538-0.487-0.695 0.001 0.097 0.001 0.194 0.001 0.292zM0.001 3.089h0.384v-0.307c-0.073 0.023-0.128 0.045-0.183 0.056-0.066 0.012-0.134 0.013-0.2 0.019v0.232zM0.001 5.597c0.327-0.007 0.359-0.036 0.315-0.317-0.107 0.028-0.211 0.056-0.315 0.084v0.233zM0.001 10.379c0.078 0.033 0.155 0.069 0.235 0.096 0.103 0.034 0.213 0.071 0.341-0.072-0.212-0.073-0.393-0.136-0.575-0.199-0.001 0.058-0.001 0.117-0.001 0.175zM0.001 14.986c0.086 0.001 0.175 0.017 0.256-0.001 0.049-0.011 0.088-0.073 0.13-0.112-0.044-0.043-0.080-0.108-0.131-0.12-0.080-0.019-0.17-0.002-0.255 0v0.233zM0.001 2.041c0.153 0.006 0.324 0.062 0.418-0.136-0.124-0.143-0.284-0.062-0.418-0.097v0.233zM0.001 16.735c0.126-0.039 0.29 0.047 0.397-0.109-0.121-0.164-0.26-0.108-0.397-0.066v0.175zM0.001 9.154c0.182 0.032 0.31-0.041 0.437-0.243-0.108 0.007-0.166 0.007-0.223 0.017-0.072 0.012-0.142 0.034-0.214 0.051v0.175zM0.001 19.476c0.107-0.044 0.293 0.013 0.273-0.22-0.092-0.024-0.183-0.047-0.273-0.072v0.292zM0.001 6.705c0.057 0.005 0.117 0.021 0.171 0.011 0.142-0.027 0.154-0.111 0.092-0.229-0.093-0.006-0.178-0.011-0.264-0.016v0.233zM0.001 0.232c0.085 0.038 0.169 0.075 0.26 0.117-0.006-0.199-0.027-0.226-0.26-0.349v0.232zM0.001 20.526c0.057-0.002 0.12 0.007 0.17-0.012 0.045-0.017 0.076-0.068 0.114-0.105-0.038-0.034-0.070-0.083-0.115-0.1-0.051-0.019-0.113-0.012-0.17-0.016 0.001 0.077 0.001 0.154 0.001 0.232zM0.001 21.284c0.039-0.002 0.085 0.009 0.113-0.009 0.044-0.027 0.102-0.073 0.103-0.112 0.001-0.036-0.059-0.084-0.103-0.109-0.028-0.018-0.075-0.005-0.113-0.004v0.233zM0.001 4.023c0.083-0.017 0.185-0.021 0.175-0.14-0.009-0.103-0.097-0.096-0.175-0.094v0.233zM0.001 22.333c0.053-0.040 0.106-0.081 0.159-0.122-0.053-0.038-0.106-0.074-0.159-0.112v0.233zM0.001 4.781c0.063-0.012 0.128-0.025 0.191-0.038 0.001-0.024 0.001-0.047 0.003-0.072-0.064-0.022-0.129-0.044-0.193-0.064v0.174zM4.258 27.692c-0.010-0.108-0.092-0.111-0.168-0.105-0.231 0.022-0.461 0.049-0.692 0.077-0.092 0.011-0.183 0.029-0.3 0.049v-0.505c0.358-0.069 0.698-0.137 1.039-0.199 0.098-0.018 0.176-0.063 0.148-0.168-0.027-0.102-0.115-0.071-0.194-0.051-0.261 0.067-0.522 0.134-0.787 0.19-0.079 0.017-0.165-0.005-0.243-0.009-0.024-0.181-0.044-0.331-0.069-0.52 0.214-0.033 0.436-0.045 0.642-0.107 0.217-0.064 0.46 0.030 0.684-0.097-0.1-0.175-0.231-0.146-0.366-0.141-0.648 0.023-1.286 0.183-1.939 0.153-0.171-0.009-0.346 0.036-0.517 0.068-0.089 0.016-0.171 0.056-0.118 0.192 0.467 0.102 0.937-0.201 1.41-0.046 0.025 0.179 0.047 0.331 0.072 0.502-0.175 0.090-0.359 0.12-0.554 0.139-0.229 0.021-0.458 0.068-0.685 0.113-0.045 0.009-0.083 0.058-0.135 0.097 0.126 0.125 0.25 0.075 0.37 0.057 0.321-0.050 0.641-0.1 0.975-0.151 0.022 0.143 0.035 0.247 0.055 0.35 0.018 0.097-0.023 0.151-0.114 0.165-0.181 0.030-0.363 0.052-0.543 0.084-0.238 0.043-0.475 0.087-0.71 0.139-0.026 0.006-0.043 0.053-0.086 0.114 0.453 0.053 2.493-0.23 2.824-0.389zM2.303 9.894c-0.153 0.010-0.306 0.016-0.459 0.012-0.119-0.002-0.175-0.085-0.17-0.194 0.018-0.366-0.090-0.734 0.013-1.1 0.017-0.063-0.010-0.137-0.016-0.208-0.092 0.038-0.149 0.082-0.16 0.135-0.026 0.12-0.042 0.258-0.045 0.4l-0 0.002c-0.006 0.388-0.002 0.777-0.002 1.174 0.883 0.056 1.771-0.001 2.657-0.113 0.011-0.049 0.029-0.080 0.022-0.103-0.112-0.408-0.181-0.831-0.393-1.204-0.070-0.124-0.179-0.228-0.284-0.327-0.11-0.104-0.236-0.103-0.372-0.022-0.402 0.239-0.643 0.805-0.481 1.231 0.030 0.079 0.041 0.165 0.068 0.275-0.152 0.017-0.265 0.035-0.378 0.043zM2.788 9.007c0.034-0.128 0.079-0.235 0.168-0.328 0.234-0.247 0.478-0.231 0.634 0.067 0.12 0.231 0.21 0.479 0.291 0.727 0.068 0.207 0.002 0.289-0.212 0.311-0.257 0.027-0.516 0.046-0.795 0.071-0.078-0.312-0.16-0.566-0.085-0.847zM4.485 31.417c-0.045-0.225-0.125-0.442-0.192-0.661-0.074-0.241-0.245-0.396-0.47-0.48-0.164-0.062-0.357-0.080-0.499 0.044-0.308 0.271-0.465 0.612-0.401 1.034 0.008 0.052 0.016 0.105 0.024 0.17-0.409 0.068-0.795 0.111-1.207 0.068-0.042-0.378-0.081-0.733-0.121-1.088-0.005-0.038-0.005-0.083-0.025-0.111-0.026-0.034-0.072-0.073-0.107-0.070s-0.086 0.047-0.097 0.084c-0.016 0.052-0.007 0.114-0.001 0.171 0.024 0.231 0.047 0.462 0.079 0.692 0.033 0.221 0.075 0.444 0.124 0.73 0.174-0.208 0.359-0.204 0.54-0.218 0.615-0.047 1.23-0.096 1.845-0.145 0.304-0.024 0.304-0.023 0.489 0.213 0.010-0.169 0.044-0.308 0.018-0.434zM3.451 30.535c0.185-0.134 0.366-0.118 0.518 0.051 0.171 0.188 0.228 0.425 0.263 0.666 0.017 0.117-0.064 0.171-0.178 0.18-0.27 0.022-0.538 0.046-0.821 0.072-0.16-0.428-0.080-0.752 0.217-0.969zM1.886 5.029c0.175 0.060 0.358 0.13 0.5 0.299-0.195 0.137-0.372 0.267-0.607 0.272-0.274 0.006-0.316 0.041-0.374 0.306 0.202 0 0.419-0.040 0.614 0.007 0.505 0.124 1.002 0.287 1.502 0.436 0.115 0.034 0.231 0.074 0.341 0.111 0.091-0.146 0.055-0.224-0.078-0.265-0.25-0.077-0.5-0.152-0.75-0.229-0.272-0.084-0.543-0.168-0.855-0.264 0.11-0.068 0.183-0.112 0.255-0.157 0.248-0.157 0.246-0.269-0.004-0.413-0.092-0.053-0.216-0.072-0.26-0.214 0.333-0.086 0.647-0.179 0.966-0.249 0.264-0.058 0.533-0.089 0.798-0.139 0.117-0.022 0.155-0.095 0.12-0.199-0.036-0.016-0.056-0.033-0.070-0.030-0.358 0.072-0.718 0.136-1.072 0.22-0.449 0.107-0.886 0.277-1.36 0.25-0.107-0.006-0.186 0.039-0.192 0.186 0.177 0.023 0.362 0.016 0.525 0.070zM3.499 24.504c0.203-0.015 0.407-0.016 0.609-0.017 0.093 0 0.191 0.001 0.186-0.122s-0.087-0.147-0.205-0.134c-0.403 0.044-0.803 0.066-1.202 0.17-0.507 0.132-0.907 0.414-1.291 0.74-0.068 0.058-0.108 0.15-0.176 0.248 0.222 0.141 0.402 0.276 0.641 0.321 0.605 0.113 1.214 0.068 1.821 0.081 0.115 0.002 0.211-0.032 0.221-0.183-0.16-0.128-0.35-0.062-0.526-0.063-0.271-0.002-0.342-0.047-0.374-0.318-0.023-0.201-0.028-0.402-0.044-0.654 0.118-0.024 0.227-0.062 0.339-0.069zM1.741 25.341c0.049-0.165 0.17-0.281 0.308-0.361 0.216-0.126 0.444-0.231 0.671-0.338 0.12-0.056 0.215-0.012 0.238 0.121 0.044 0.245 0.076 0.492 0.113 0.738-0.425 0.090-1.053 0.016-1.331-0.16zM2.973 23.081c0.18-0.021 0.341-0.039 0.501-0.057 0.172-0.019 0.346-0.036 0.518-0.055 0.095-0.010 0.164-0.046 0.17-0.165-0.091-0.084-0.191-0.051-0.296-0.034-0.219 0.034-0.44 0.060-0.659 0.079-0.509 0.043-1.019 0.078-1.529 0.121-0.056 0.005-0.109 0.047-0.164 0.072 0.004 0.022 0.007 0.043 0.011 0.064 0.397 0.131 0.81-0.023 1.235 0.015 0.039 0.207 0.076 0.408 0.12 0.643-0.138 0.013-0.232 0.023-0.325 0.030-0.308 0.022-0.618 0.043-0.926 0.062-0.118 0.007-0.233 0.017-0.285 0.203 0.092 0.022 0.177 0.062 0.261 0.058 0.424-0.019 0.852-0.017 1.268-0.087 0.409-0.069 0.811-0.179 1.231-0.18 0.043 0 0.086-0.075 0.129-0.115-0.047-0.040-0.090-0.092-0.143-0.114-0.039-0.016-0.093 0.007-0.142 0.015-0.274 0.041-0.548 0.084-0.828 0.128-0.056-0.256-0.097-0.451-0.146-0.682zM2.584 28.689c-0.335 0.004-0.645 0.101-0.943 0.239-0.085 0.039-0.163 0.106-0.226 0.176-0.155 0.174-0.138 0.306 0.056 0.43 0.089 0.057 0.187 0.111 0.288 0.134 0.28 0.067 0.556 0.159 0.855 0.142 0.2-0.011 0.403 0.030 0.603 0.028 0.356-0.005 0.712-0.026 1.070-0.040-0.035-0.218-0.058-0.238-0.231-0.216-0.236 0.032-0.471 0.067-0.736 0.105-0.075-0.292-0.14-0.546-0.212-0.83 0.363-0.035 0.698-0.069 1.032-0.101 0.091-0.009 0.193 0.007 0.219-0.141-0.058-0.015-0.102-0.036-0.146-0.036-0.3 0-0.602-0.016-0.9 0.017-0.154 0.017-0.26 0.005-0.358-0.142-0.041 0.245-0.217 0.235-0.37 0.236zM2.887 28.874c0.039 0.118 0.087 0.243 0.121 0.371 0.033 0.125 0.052 0.255 0.083 0.411-0.556 0.002-1.083-0.089-1.591-0.32 0.189-0.327 0.783-0.519 1.387-0.462zM4.253 18.128c-0.92-0.004-1.844 0.060-2.802-0.168 0.074 0.542 0.081 1.046 0.266 1.514 0.087 0 0.136 0.001 0.185 0 0.348-0.013 0.697-0.034 1.044-0.038 0.396-0.005 0.793 0.005 1.19 0.004 0.118 0 0.144-0.073 0.103-0.201-0.115-0.011-0.239-0.034-0.363-0.033-0.611 0.006-1.221 0.012-1.832 0.030-0.146 0.005-0.222-0.046-0.244-0.182-0.038-0.236-0.070-0.474-0.108-0.722 0.062-0.019 0.106-0.046 0.149-0.044 0.242 0.007 0.487 0.001 0.726 0.036 0.525 0.078 1.044 0.021 1.565-0.030 0.049-0.005 0.093-0.056 0.14-0.086-0.006-0.028-0.012-0.055-0.018-0.081zM1.854 1.167c-0.176-0.013-0.346-0.006-0.512 0.181 0.101 0.021 0.167 0.045 0.234 0.045 0.123 0 0.246-0.017 0.369-0.023 0.329-0.015 0.659-0.016 0.987-0.044 0.277-0.024 0.546-0.117 0.831-0.047 0.040 0.010 0.093-0.034 0.202-0.077-0.288-0.165-0.527-0.3-0.764-0.439-0.243-0.141-0.483-0.284-0.725-0.428 0.080-0.044 0.146-0.051 0.21-0.050 0.31 0.007 0.62 0.019 0.93 0.025 0.083 0.001 0.181 0.016 0.211-0.119-0.050-0.022-0.098-0.057-0.149-0.062-0.167-0.018-0.403-0.036-0.64-0.049l-0.041-0.002c-0.436-0.026-0.871-0.049-1.306-0.067-0.078-0.004-0.157 0.022-0.283 0.041 0.176 0.19 0.373 0.117 0.521 0.19 0.155 0.077 0.316 0.145 0.467 0.229 0.16 0.090 0.314 0.192 0.469 0.292 0.143 0.091 0.285 0.186 0.427 0.28-0.492 0.128-0.963 0.158-1.438 0.124zM3.001 15.325c0.109-0.012 0.217-0.028 0.327-0.038 0.231-0.022 0.463-0.036 0.692-0.067 0.039-0.005 0.101-0.075 0.098-0.109-0.004-0.040-0.063-0.084-0.108-0.108-0.029-0.016-0.075 0-0.114 0.002-0.511 0.035-1.022 0.070-1.533 0.107-0.144 0.010-0.291 0.011-0.433 0.039-0.045 0.008-0.076 0.088-0.114 0.135 0.045 0.030 0.086 0.079 0.135 0.089 0.053 0.010 0.113-0.023 0.17-0.023 0.154 0 0.325-0.035 0.458 0.021 0.369 0.156 0.722 0.35 1.111 0.543-0.182 0.135-0.364 0.13-0.543 0.129-0.418-0.005-0.833 0.011-1.238 0.123-0.066 0.018-0.125 0.056-0.2 0.090 0.151 0.165 0.299 0.075 0.433 0.063 0.366-0.034 0.73-0.078 1.094-0.119 0.288-0.033 0.576-0.066 0.862-0.102 0.037-0.005 0.069-0.030 0.103-0.046-0.008-0.034-0.015-0.057-0.022-0.080l0.003 0.011c-3.313-1.584-3.701-1.786-4.088-1.989l2.904 1.382c0.001-0.017 0.002-0.035 0.005-0.052zM3.574 3.218c0.134 0.017 0.266 0.054 0.399 0.063 0.043 0.004 0.090-0.051 0.134-0.079-0.036-0.036-0.069-0.1-0.109-0.104-0.313-0.044-0.629-0.096-0.943-0.106-0.246-0.007-0.498 0.028-0.743 0.070-0.188 0.033-0.38 0.084-0.55 0.169-0.119 0.059-0.277 0.182-0.288 0.289-0.017 0.171 0.165 0.272 0.319 0.329 0.251 0.092 0.515 0.154 0.765 0.249 0.386 0.146 0.782 0.102 1.177 0.088 0.144-0.005 0.231-0.077 0.212-0.28l-0.617 0.071v-0.761c0.095-0.001 0.17-0.009 0.244 0.001zM1.769 3.622c-0.118-0.066-0.108-0.188 0.022-0.243 0.361-0.151 0.738-0.216 1.13-0.179 0.106 0.010 0.16 0.079 0.163 0.173 0.005 0.19-0.004 0.379-0.007 0.586-0.494 0.004-0.914-0.119-1.308-0.337zM3.282 22.422c0.249-0.010 0.435-0.143 0.619-0.284 0.144-0.111 0.165-0.262 0.108-0.417-0.039-0.106-0.098-0.224-0.185-0.288-0.237-0.177-0.459-0.397-0.784-0.402-0.182-0.002-0.37-0.021-0.545 0.018-0.322 0.072-0.631 0.186-0.849 0.461-0.227 0.284-0.149 0.587 0.164 0.774 0.293 0.176 0.614 0.142 0.903 0.194 0.203-0.021 0.385-0.049 0.568-0.056zM3.187 22.254c-0.278 0.024-0.561 0.015-0.84-0.004-0.219-0.013-0.412-0.098-0.531-0.305s-0.101-0.323 0.1-0.469c0.2-0.146 0.437-0.235 0.676-0.231 0.378 0.006 0.753 0.078 1.058 0.334 0.093 0.078 0.168 0.179 0.255 0.275-0.182 0.309-0.448 0.376-0.718 0.4zM3.783 11.581c0.38-0.215 0.384-0.541 0.050-0.817-0.299-0.247-0.647-0.362-1.011-0.385-0.482-0.030-0.922 0.097-1.191 0.559-0.092 0.159-0.087 0.311 0 0.468 0.083 0.151 0.199 0.269 0.364 0.315 0.221 0.061 0.447 0.105 0.67 0.156 0.397-0.036 0.776-0.101 1.118-0.295zM3.52 10.752c0.112 0.041 0.214 0.134 0.296 0.224 0.115 0.126 0.1 0.27-0.030 0.385-0.072 0.063-0.154 0.126-0.244 0.154-0.397 0.122-0.805 0.218-1.22 0.145-0.163-0.028-0.324-0.128-0.46-0.23-0.161-0.12-0.161-0.327-0.044-0.492 0.14-0.197 0.344-0.278 0.568-0.312 0.143-0.022 0.289-0.022 0.433-0.032 0.004-0.011 0.007-0.023 0.012-0.034 0.232 0.062 0.466 0.109 0.688 0.192zM2.802 16.842c-0.212-0.396-0.412-0.535-0.809-0.191-0.192 0.167-0.327 0.357-0.289 0.627 0.017 0.122 0.039 0.242 0.063 0.385 0.1 0.008 0.236 0.062 0.321 0.019 0.313-0.159 0.641-0.106 0.966-0.122 0.174-0.008 0.346-0.023 0.518-0.043 0.18-0.021 0.359-0.051 0.539-0.080 0.066-0.011 0.131-0.028 0.197-0.043v-0.080c-0.067-0.017-0.135-0.051-0.199-0.046-0.202 0.017-0.402 0.051-0.603 0.073-0.17 0.019-0.342 0.030-0.515 0.046-0.074-0.222-0.109-0.397-0.189-0.547zM2.031 17.422c-0.285-0.345-0.039-0.641 0.29-0.704 0.119-0.023 0.222 0.006 0.274 0.111 0.080 0.159 0.138 0.328 0.221 0.53-0.297 0.024-0.541 0.044-0.786 0.063zM1.643 12.739c0.166 0.218 0.375 0.387 0.657 0.447 0.263 0.057 0.525 0.128 0.786 0.197 0.296 0.078 0.578 0.039 0.839-0.114 0.203-0.119 0.363-0.303 0.327-0.541-0.034-0.222-0.141-0.437-0.239-0.644-0.055-0.115-0.152-0.096-0.237 0.026 0.050 0.067 0.117 0.128 0.148 0.204 0.057 0.139 0.136 0.288 0.127 0.429-0.014 0.262-0.191 0.407-0.462 0.431-0.563 0.050-1.093-0.080-1.591-0.338-0.067-0.035-0.128-0.090-0.179-0.146-0.143-0.154-0.144-0.212-0.001-0.389 0.058-0.072 0.075-0.13-0.006-0.216-0.347 0.213-0.39 0.366-0.169 0.654zM4.077 2.291c-0.015-0.050-0.018-0.097-0.032-0.1-0.761-0.16-1.512 0.056-2.268 0.072-0.129-0.225 0.077-0.526-0.153-0.761-0.033 0.054-0.060 0.077-0.060 0.098 0.001 0.445 0.002 0.89 0.011 1.336 0.001 0.045 0.045 0.089 0.068 0.132 0.021-0.001 0.041-0.004 0.062-0.005 0.013-0.088 0.032-0.174 0.038-0.261 0.006-0.094 0.001-0.19 0.001-0.304 0.781-0.145 1.576 0.051 2.332-0.208zM2.44 7.879c0.31 0.013 0.624 0.063 0.929 0.030 0.291-0.030 0.586 0.089 0.88-0.019-0.027-0.18-0.143-0.185-0.262-0.184-0.301 0.001-0.601 0.006-0.902 0.002-0.416-0.005-0.834-0.017-1.251-0.021-0.090-0.001-0.199-0.033-0.271 0.134 0.295 0.086 0.589 0.045 0.877 0.057zM1.377 8.038c0.010-0.037-0.036-0.125-0.064-0.129-0.113-0.016-0.172 0.057-0.187 0.165-0.002 0.017 0.010 0.035 0.017 0.062 0.114 0.058 0.202 0.028 0.234-0.098z"></path>
</symbol>

<symbol id="icon-text-rika" viewBox="0 0 4 32">
<path d="M0.002 12.495c0.43 0.021 0.859 0.031 1.288-0.033 0.217-0.032 0.439-0.019 0.66-0.026 0.361-0.012 0.723-0.022 1.084-0.039 0.122-0.005 0.243-0.028 0.365-0.041 0.066 0.171 0.044 0.217-0.127 0.231-0.289 0.023-0.58 0.047-0.871 0.056-0.466 0.014-0.934 0.015-1.4 0.024-0.017 0-0.032 0.011-0.066 0.023 0.061 0.090 0.157 0.113 0.242 0.122 0.546 0.058 1.022 0.309 1.513 0.521 0.19 0.082 0.386 0.153 0.591 0.234-0.013 0.102-0.076 0.144-0.176 0.147-0.579 0.021-1.157 0.037-1.736 0.064-0.307 0.014-0.614 0.053-0.922 0.066-0.147 0.007-0.296-0.020-0.444-0.031v-0.211c0.113 0.014 0.225 0.042 0.338 0.041 0.219-0.002 0.439-0.023 0.657-0.032 0.508-0.021 1.018-0.037 1.526-0.059 0.019-0.001 0.036-0.029 0.073-0.059-0.313-0.194-0.639-0.312-0.976-0.406-0.201-0.056-0.402-0.114-0.601-0.18-0.332-0.11-0.653-0.267-1.019-0.201v-0.21zM0.002 0.159c0.181 0.034 0.364 0.064 0.544 0.104 0.203 0.046 0.403 0.091 0.595 0.198 0.249 0.14 0.528 0.225 0.79 0.343 0.16 0.071 0.314 0.158 0.467 0.242 0.050 0.027 0.092 0.067 0.155 0.114-0.13 0.077-0.231 0.016-0.325-0.004-0.386-0.083-0.768-0.179-1.151-0.27-0.034-0.008-0.069-0.017-0.104-0.020-0.324-0.025-0.648-0.049-0.97-0.074v0.211c0.255 0.004 0.512-0.001 0.767 0.015 0.139 0.009 0.282 0.037 0.412 0.085 0.646 0.231 1.325 0.246 1.996 0.313 0.011 0.001 0.024-0.021 0.036-0.033-0.045-0.138-0.046-0.136-0.147-0.182-0.135-0.063-0.264-0.135-0.398-0.201-0.423-0.208-0.811-0.489-1.283-0.595-0.066-0.015-0.123-0.071-0.183-0.109 0.008-0.021 0.015-0.041 0.023-0.062 0.224 0.034 0.448 0.080 0.673 0.1 0.237 0.021 0.475 0.028 0.713 0.023 0.22-0.004 0.446 0.041 0.665-0.029-0.029-0.148-0.122-0.124-0.194-0.125-0.194-0.004-0.393 0.026-0.581-0.009-0.559-0.104-1.124-0.084-1.686-0.122-0.272-0.019-0.542-0.048-0.813-0.072 0.001 0.054 0.001 0.107 0.001 0.159zM0.002 12.284c0.378-0.014 0.756-0.036 1.134-0.043 0.687-0.011 1.375-0.012 2.062-0.020 0.214-0.002 0.222-0.013 0.242-0.217 0.030-0.3-0.002-0.592-0.091-0.881-0.087-0.287-0.334-0.48-0.637-0.481-0.168-0.001-0.337-0.015-0.502 0.003-0.296 0.035-0.593 0.085-0.82 0.304-0.091 0.088-0.163 0.194-0.24 0.286-0.144-0.163-0.286-0.337-0.445-0.495-0.055-0.054-0.149-0.075-0.229-0.098-0.178-0.050-0.312 0.090-0.474 0.113v0.211c0.062-0.032 0.126-0.060 0.187-0.096 0.187-0.108 0.309-0.105 0.481 0.034 0.086 0.070 0.169 0.155 0.229 0.248 0.104 0.162 0.188 0.336 0.284 0.502 0.028 0.048 0.069 0.088 0.102 0.131 0.139-0.087 0.055-0.189 0.051-0.276-0.015-0.311 0.054-0.459 0.332-0.553 0.359-0.121 0.73-0.194 1.114-0.162 0.212 0.019 0.39 0.169 0.427 0.367s0.066 0.397 0.086 0.595c0.023 0.242-0.011 0.282-0.25 0.291-0.291 0.011-0.581 0.008-0.872 0.010l-2.168 0.013c-0.002 0.071-0.002 0.142-0.002 0.212zM0.002 21.51c0.225-0.021 0.451-0.041 0.676-0.062 0.109-0.010 0.17 0.042 0.226 0.137 0.116 0.194 0.118 0.4 0.085 0.608-0.025 0.164-0.231 0.306-0.438 0.314-0.182 0.008-0.367 0.003-0.55 0.003v0.105c0.105 0.011 0.211 0.017 0.315 0.035 0.221 0.039 0.418-0.022 0.606-0.128 0.212-0.12 0.288-0.284 0.246-0.527-0.014-0.082-0.031-0.164-0.053-0.279 0.073 0.026 0.108 0.032 0.134 0.049 0.525 0.37 1.129 0.564 1.729 0.765 0.099 0.033 0.213 0.064 0.316-0.074-0.78-0.235-1.519-0.504-2.196-0.996 0.070-0.025 0.101-0.044 0.131-0.045 0.421-0.022 0.842-0.043 1.263-0.060 0.185-0.008 0.37-0.008 0.555-0.014 0.075-0.002 0.158-0.002 0.191-0.137-0.109-0.007-0.201-0.020-0.293-0.015-0.648 0.031-1.297-0.046-1.945 0.098-0.317 0.070-0.665 0.012-1 0.013v0.211zM0.002 18.926c0.114-0.008 0.235 0.008 0.338-0.029 0.326-0.115 0.661-0.082 0.992-0.083 0.172 0 0.191 0.023 0.191 0.203-0.001 0.223 0.067 0.452-0.038 0.686-0.451-0.043-0.906-0.042-1.334-0.222-0.046-0.020-0.101-0.019-0.151-0.026v0.211c0.104 0.010 0.211 0.010 0.313 0.032 0.559 0.122 1.117 0.245 1.695 0.224 0.193-0.007 0.389 0.009 0.581-0.006 0.21-0.015 0.418-0.051 0.625-0.085 0.041-0.007 0.076-0.048 0.114-0.074l-0.013-0.056c-0.261 0.020-0.522 0.047-0.783 0.057-0.27 0.010-0.54 0.002-0.84 0.002-0.004-0.268-0.007-0.502-0.011-0.736-0.004-0.198-0.001-0.211 0.194-0.211 0.379 0.001 0.758 0.011 1.137 0.021 0.103 0.003 0.21 0.036 0.275-0.124-0.091-0.015-0.165-0.037-0.239-0.037-0.793-0.004-1.587-0.007-2.38-0.004-0.086 0-0.172 0.029-0.259 0.042-0.137 0.021-0.274 0.039-0.411 0.057 0.002 0.053 0.002 0.105 0.002 0.158zM0.002 20.561c0.182 0.021 0.44 0.126 0.604 0.262-0.221 0.032-0.413-0.003-0.604 0.002v0.211c0.553-0.047 1.105-0.069 1.661-0.045 0.502 0.022 1.004 0.025 1.507 0.035 0.083 0.001 0.18 0.019 0.219-0.1-0.018-0.019-0.032-0.045-0.053-0.053-0.032-0.012-0.067-0.014-0.103-0.015-0.475-0.010-0.95-0.018-1.427-0.028-0.139-0.003-0.278-0.021-0.417-0.013-0.104 0.007-0.187-0.028-0.21-0.115-0.017-0.063 0.009-0.155 0.050-0.211 0.042-0.059 0.118-0.116 0.189-0.131 0.283-0.056 0.568-0.105 0.854-0.14 0.339-0.041 0.682-0.062 1.022-0.096 0.026-0.002 0.050-0.038 0.125-0.1-0.142-0.017-0.232-0.040-0.32-0.033-0.439 0.031-0.884 0.034-1.314 0.115-0.354 0.067-0.793 0.089-0.833 0.625-0.126-0.051-0.239-0.095-0.351-0.141-0.2-0.080-0.4-0.162-0.601-0.242 0.002 0.070 0.002 0.141 0.002 0.211zM0.002 25.516c0.227-0.059 0.453-0.121 0.681-0.179 0.149-0.039 0.301-0.071 0.476-0.113-0.015 0.198-0.026 0.386-0.044 0.574-0.019 0.189 0.133 0.367 0.025 0.599-0.376-0.029-0.757-0.059-1.138-0.089v0.158c0.57 0.034 1.139 0.071 1.709 0.102 0.351 0.019 0.704 0.034 1.056 0.038 0.116 0.002 0.249-0.008 0.282-0.209-0.566 0.136-1.106 0.040-1.639 0.010-0.145-0.413-0.102-0.8-0.040-1.225 0.343-0.077 0.698-0.157 1.054-0.237 0.017-0.003 0.035 0.002 0.053-0.001 0.198-0.035 0.397-0.066 0.592-0.111 0.034-0.008 0.055-0.075 0.108-0.153-0.103 0.009-0.145 0.008-0.186 0.015-0.188 0.040-0.375 0.088-0.564 0.123-0.301 0.056-0.606 0.091-0.904 0.16-0.502 0.116-0.999 0.253-1.498 0.38-0.008 0.004-0.017 0-0.025-0.001v0.158zM0.002 5.642c0.043-0.007 0.086-0.021 0.13-0.020 0.414 0.001 0.829-0.005 1.243 0.011 0.565 0.022 1.127 0.024 1.686-0.086 0.081-0.015 0.158-0.015 0.158-0.137-0.034-0.011-0.066-0.032-0.097-0.031-0.193 0.012-0.386 0.031-0.579 0.044-0.083 0.008-0.321 0.024-0.559 0.038l-0.126 0.006c-0.081 0.004-0.133-0.029-0.154-0.111-0.075-0.296-0.155-0.59-0.231-0.884-0.102-0.393-0.486-0.687-0.851-0.626-0.125 0.021-0.242 0.097-0.361 0.148-0.087 0.039-0.173 0.079-0.26 0.119v0.211c0.137-0.076 0.272-0.154 0.411-0.225 0.365-0.187 0.779-0.011 0.898 0.382 0.072 0.234 0.146 0.467 0.207 0.703 0.020 0.078 0.003 0.165 0.003 0.274-0.525-0.085-1.022-0.066-1.519-0.026v0.211zM0.002 3.586c0.332 0.032 0.662 0.086 0.993 0.089 0.527 0.007 1.055-0.003 1.58-0.043 0.18-0.014 0.358-0.128 0.527-0.217 0.1-0.053 0.117-0.158 0.028-0.243-0.12-0.113-0.235-0.249-0.38-0.315-0.354-0.162-0.705-0.321-1.105-0.375-0.475-0.064-0.939-0.125-1.407 0.026-0.073 0.024-0.157 0.015-0.235 0.022v0.158c0.147-0.022 0.298-0.030 0.44-0.070 0.241-0.069 0.481-0.101 0.728-0.053 0.129 0.025 0.256 0.068 0.386 0.075 0.231 0.011 0.454 0.051 0.661 0.149 0.229 0.11 0.46 0.219 0.672 0.354 0.136 0.087 0.109 0.179-0.042 0.244-0.256 0.11-0.528 0.148-0.801 0.132-0.682-0.040-1.363-0.097-2.044-0.146v0.213zM0.002 28.151c0.049 0.012 0.104 0.014 0.146 0.039 0.186 0.109 0.338 0.258 0.55 0.434-0.271 0.066-0.486 0.034-0.696 0.055v0.158c0.192-0.019 0.406 0.009 0.57-0.068 0.173-0.080 0.337-0.065 0.506-0.081 0.262-0.025 0.525-0.048 0.788-0.066 0.272-0.019 0.544-0.031 0.816-0.043 0.088-0.004 0.178 0.008 0.264-0.006 0.049-0.008 0.092-0.051 0.141-0.080-0.030-0.035-0.038-0.052-0.051-0.059-0.012-0.006-0.025-0.009-0.040-0.009-0.004 0-0.008 0-0.011 0.001l0-0c-0.557 0.086-1.127-0.031-1.681 0.125-0.099 0.029-0.239 0.006-0.327-0.047-0.061-0.036-0.066-0.166-0.096-0.253-0.011-0.033-0.027-0.065-0.036-0.099-0.074-0.248-0.020-0.4 0.202-0.532 0.075-0.045 0.162-0.085 0.254-0.115l0.010-0.003c0.442-0.14 0.878-0.297 1.339-0.369 0.155-0.024 0.308-0.066 0.458-0.115 0.101-0.033 0.222-0.047 0.305-0.204-0.095 0-0.161-0.014-0.219 0.002-0.64 0.177-1.278 0.353-1.914 0.542-0.139 0.042-0.272 0.124-0.388 0.213-0.217 0.164-0.253 0.332-0.17 0.598 0.028 0.087 0.070 0.178-0.001 0.292-0.146-0.112-0.277-0.224-0.42-0.321-0.092-0.058-0.199-0.097-0.298-0.146v0.158zM0.002 32c0.255-0.013 0.511-0.022 0.765-0.043 0.25-0.020 0.501 0.001 0.751-0.048 0.257-0.051 0.536-0.013 0.787-0.080 0.239-0.063 0.504 0.014 0.726-0.147-0.062-0.044-0.125-0.071-0.185-0.067-0.343 0.026-0.685 0.065-1.028 0.092-0.126 0.010-0.254 0.001-0.388 0.001 0.018-0.142 0.043-0.263 0.045-0.383 0-0.131-0.006-0.265-0.038-0.39-0.040-0.152-0.114-0.293-0.167-0.442-0.171-0.472-0.58-0.679-1.062-0.537-0.067 0.021-0.138 0.029-0.208 0.042v0.158c0.103-0.021 0.206-0.043 0.308-0.063 0.383-0.073 0.671 0.077 0.785 0.364 0.080 0.202 0.127 0.416 0.191 0.624 0.073 0.234 0.013 0.445-0.107 0.674-0.39 0.029-0.783 0.058-1.177 0.088v0.158zM0.002 10.333c0.546 0.013 1.092 0.028 1.638 0.041 0.457 0.011 0.917-0.030 1.371 0.065 0.025 0.005 0.053 0.008 0.078 0.005 0.135-0.010 0.2-0.096 0.189-0.227-0.008-0.092 0-0.186 0.001-0.278 0-0.096 0.006-0.191-0.002-0.287-0.013-0.165-0.031-0.33-0.052-0.494-0.011-0.086 0.055-0.237-0.078-0.237-0.175 0.001-0.077 0.16-0.074 0.246 0.010 0.345 0.088 0.69-0.010 1.057-0.52-0.018-1.045 0.028-1.586-0.048l-0-0.306c-0-0.167 0.004-0.334-0.006-0.5-0.002-0.044-0.049-0.086-0.075-0.129-0.021 0.005-0.041 0.010-0.062 0.015-0.006 0.306-0.012 0.613-0.019 0.953-0.46-0.030-0.887-0.057-1.315-0.086 0.001 0.070 0.001 0.141 0.001 0.211zM0.002 1.899c0.112 0.014 0.224 0.024 0.336 0.044 0.095 0.017 0.187 0.055 0.282 0.064 0.429 0.042 0.859 0.075 1.287 0.113 0.061 0.006 0.124 0.012 0.182 0.030 0.379 0.112 0.769 0.057 1.155 0.074 0.049 0.002 0.097-0.019 0.142-0.027 0.021-0.135-0.066-0.143-0.146-0.144-0.236-0.004-0.472 0-0.708-0.003-0.070-0.001-0.139-0.014-0.209-0.023-0.165-0.021-0.329-0.045-0.494-0.063-0.105-0.011-0.211-0.006-0.316-0.020-0.209-0.027-0.416-0.067-0.623-0.095-0.296-0.038-0.592-0.071-0.888-0.107v0.157zM0.002 14.973c0.387 0.069 0.771 0.171 1.16 0.201 0.596 0.044 1.195 0.041 1.792 0.050 0.096 0.001 0.209 0.001 0.308-0.114-0.072-0.030-0.122-0.068-0.172-0.069-0.421-0.005-0.843 0.003-1.264-0.008-0.253-0.007-0.507-0.033-0.759-0.064-0.356-0.044-0.711-0.101-1.066-0.153 0.001 0.052 0.001 0.104 0.001 0.157zM0.002 15.553c0.139 0.007 0.279 0.019 0.418 0.018 0.167-0.002 0.343-0.052 0.501-0.018 0.43 0.093 0.861 0.052 1.292 0.059 0.317 0.005 0.635-0.004 0.953-0.008 0.071-0.001 0.158 0.005 0.155-0.095-0.003-0.112-0.092-0.102-0.176-0.096-0.193 0.017-0.387 0.040-0.58 0.037-0.397-0.007-0.792-0.033-1.188-0.043-0.457-0.010-0.916-0.011-1.373-0.015v0.159zM0.002 7.065c0.225 0.029 0.451 0.057 0.676 0.085 0.061 0.008 0.123 0.010 0.183 0.011 0.773 0.014 1.547 0.029 2.321 0.037 0.046 0 0.094-0.045 0.141-0.069l-0.007-0.063c-0.078-0.015-0.157-0.042-0.235-0.043-0.3-0.005-0.599 0.001-0.897-0.003-0.378-0.004-0.756-0.005-1.134-0.025-0.35-0.018-0.699-0.058-1.049-0.089v0.159zM0.002 16.923c0.458-0.003 0.916 0.004 1.374-0.013 0.394-0.015 0.789-0.058 1.182-0.093 0.183-0.017 0.367-0.039 0.549-0.066 0.070-0.011 0.164-0.014 0.155-0.136-0.253-0.049-0.492 0.026-0.735 0.044-0.84 0.060-1.682 0.091-2.525 0.053v0.212zM0.002 6.064c0.097-0.002 0.193-0.005 0.291-0.005 0.916 0.004 1.832 0.010 2.749 0.013 0.064 0 0.127-0.020 0.2-0.032-0.026-0.133-0.111-0.124-0.186-0.124-0.264-0.002-0.528-0.001-0.793-0.007-0.22-0.005-0.439-0.026-0.659-0.029-0.465-0.004-0.93-0.002-1.396 0-0.069 0-0.137 0.017-0.206 0.025-0.001 0.053-0.001 0.105-0.001 0.158zM0.002 14.551c0.361-0.055 0.724-0.109 1.085-0.166 0.642-0.101 1.283-0.204 1.924-0.304 0.103-0.017 0.209-0.022 0.266-0.187-0.086 0-0.149-0.008-0.21 0.001-0.313 0.046-0.624 0.097-0.936 0.147-0.381 0.062-0.762 0.122-1.144 0.185-0.329 0.054-0.657 0.111-0.986 0.167v0.157zM0.002 29.734c0.202-0.014 0.403-0.030 0.606-0.044 0.149-0.010 0.301-0.009 0.449-0.027 0.462-0.057 0.924-0.118 1.384-0.186 0.26-0.039 0.516-0.093 0.773-0.145 0.017-0.003 0.026-0.036 0.047-0.068-0.13-0.083-0.261-0.052-0.387-0.032-0.371 0.060-0.741 0.138-1.114 0.188-0.418 0.055-0.839 0.088-1.259 0.127-0.166 0.015-0.333 0.019-0.499 0.029v0.158zM3.043 24.442c0.015-0.007 0.032-0.014 0.043-0.025 0.131-0.135 0.209-0.159 0.355-0.084 0.286 0.149 0.567 0.308 0.851 0.46 0.039 0.021 0.086 0.028 0.181 0.056-0.056-0.080-0.072-0.125-0.103-0.144-0.308-0.181-0.614-0.367-0.934-0.529-0.092-0.046-0.225-0.032-0.336-0.017-0.15 0.022-0.173 0.121-0.084 0.284 0.010 0 0.020 0.002 0.026-0.002z"></path>
</symbol>

<symbol id="icon-text-vin-byde" viewBox="0 0 7 32">
<path d="M2.967 30.456c-0.29-0.305-0.522-0.559-0.764-0.801-0.143-0.143-0.295-0.282-0.463-0.394-0.174-0.114-0.293-0.072-0.377 0.114-0.322 0.699-0.37 1.428-0.224 2.178 0.027 0.141 0.101 0.21 0.247 0.201 0.024-0.001 0.048-0.001 0.072-0.004 0.501-0.065 1.002-0.038 1.504-0.044 1.174-0.014 2.349-0.069 3.523-0.104 0.147-0.004 0.313-0.048 0.439 0.159-0.096 0.041-0.174 0.098-0.256 0.102-0.239 0.014-0.48 0.003-0.719 0.009-1.487 0.038-2.976 0.077-4.463 0.114-0.256 0.006-0.51 0.001-0.789-0.029 0.257-0.218 0.15-0.484 0.159-0.729 0.015-0.455 0.020-0.911 0.056-1.363 0.015-0.186 0.075-0.38 0.159-0.548 0.072-0.143 0.199-0.268 0.322-0.376 0.137-0.119 0.29-0.11 0.468-0.032 0.352 0.156 0.535 0.47 0.77 0.739 0.036 0.042 0.066 0.090 0.143 0.195 0.039-0.149 0.066-0.23 0.081-0.316 0.087-0.5 0.298-0.927 0.686-1.27 0.361-0.319 0.777-0.482 1.248-0.464 0.192 0.008 0.395 0.098 0.567 0.195 0.591 0.337 0.991 0.884 0.851 1.664-0.093 0.515-0.116 1.044-0.168 1.566-0.012 0.113 0.030 0.262-0.15 0.271-0.126 0.006-0.192-0.125-0.17-0.331 0.044-0.403 0.102-0.805 0.14-1.208 0.029-0.306 0.077-0.619 0.045-0.921-0.050-0.469-0.552-0.927-1.021-0.957-0.738-0.046-1.382 0.244-1.617 1.023-0.096 0.319-0.132 0.655-0.2 0.983-0.019 0.105-0.053 0.209-0.098 0.376zM3.511 21.278c-0.006-0.221 0.038-0.271 0.28-0.269 0.562 0.001 1.126 0.021 1.689 0.038 0.156 0.004 0.311 0.029 0.468 0.027 0.173-0.002 0.244-0.084 0.23-0.245s-0.111-0.188-0.253-0.168c-0.141 0.019-0.286 0.027-0.429 0.024-0.48-0.009-0.959-0.036-1.439-0.033-0.528 0.004-1.054 0.031-1.58 0.055-0.562 0.026-1.125 0.057-1.687 0.086-0.125 0.006-0.23 0.035-0.293 0.23 0.928 0.010 1.827 0.022 2.719 0.033 0.129 1.019 0.134 2.325-0.004 2.633-0.197 0-0.41 0.011-0.624-0.002-0.599-0.033-1.196-0.080-1.794-0.11-0.065-0.003-0.174 0.050-0.191 0.101-0.036 0.107 0.039 0.176 0.153 0.189 0.274 0.032 0.547 0.093 0.821 0.089 0.777-0.014 1.555 0.044 2.335-0.057 0.723-0.093 1.456-0.105 2.185-0.158 0.069-0.004 0.137-0.054 0.205-0.083-0.005-0.027-0.009-0.053-0.013-0.080-0.426-0.134-0.859-0.017-1.289 0.012-0.451 0.030-0.902 0.059-1.41 0.093-0.029-0.852-0.057-1.629-0.077-2.406zM5.741 13.498c-0.066-0.499-0.29-0.912-0.663-1.241-0.314-0.278-0.782-0.213-0.995 0.144-0.14 0.234-0.248 0.49-0.35 0.744-0.171 0.421-0.168 0.861-0.086 1.303h-2.233c-0.050-0.367-0.104-0.685-0.134-1.005s-0.021-0.643-0.057-0.962c-0.035-0.304 0.078-0.631-0.107-0.959-0.176 0.158-0.155 0.311-0.147 0.467 0.029 0.586 0.053 1.172 0.080 1.76 0.006 0.12 0.003 0.24 0.021 0.359 0.029 0.185 0.029 0.359-0.147 0.488 0.063 0.080 0.113 0.143 0.168 0.212 0.259-0.128 0.511-0.162 0.779-0.107 0.081 0.017 0.167 0.006 0.251 0.006 0.937 0 1.872 0.006 2.809-0.003 0.418-0.004 0.836-0.039 1.254-0.060 0.128-0.006 0.235-0.033 0.245-0.233h-0.534c-0.051-0.308-0.113-0.609-0.153-0.914zM4.050 12.968c0.098-0.188 0.215-0.371 0.349-0.535 0.131-0.159 0.29-0.159 0.483-0.059 0.305 0.158 0.436 0.445 0.51 0.747 0.087 0.358 0.132 0.726 0.191 1.091 0.019 0.122-0.018 0.221-0.159 0.228-0.475 0.025-0.95 0.047-1.454 0.071-0.084-0.567-0.164-1.067 0.081-1.543zM5.898 4.648c-0.013 0.186-0.105 0.244-0.275 0.254-0.789 0.048-1.577 0.099-2.367 0.156-0.538 0.039-1.075 0.114-1.614 0.126-0.292 0.006-0.52 0.105-0.79 0.248 0.077 0.041 0.116 0.066 0.158 0.084 0.486 0.197 0.973 0.377 1.484 0.518 0.983 0.271 1.965 0.422 2.982 0.347 0.084-0.006 0.168-0.004 0.253-0.003 0.138 0.001 0.227 0.063 0.245 0.209 0.112 0.966 0.167 1.379 0.225 1.791l-0.067-0.584c0.008 0.050 0.051 0.095 0.081 0.146 0.152-0.063 0.195-0.161 0.179-0.295-0.045-0.365-0.068-0.736-0.141-1.097-0.105-0.523-0.099-1.046-0.083-1.574 0.009-0.301 0.017-0.6 0.021-0.9 0.002-0.119 0.019-0.254-0.199-0.233-0.032 0.269-0.075 0.537-0.093 0.806zM1.244 5.428c0.137-0.035 0.206-0.062 0.275-0.066 0.489-0.032 0.979-0.057 1.469-0.086 0.311-0.018 0.623-0.038 0.932-0.063 0.274-0.022 0.546-0.062 0.82-0.077 0.31-0.017 0.623-0.012 0.932-0.017 0.132-0.001 0.203 0.071 0.205 0.198 0.005 0.25 0.002 0.501 0.002 0.778-1.597 0.174-3.095-0.113-4.635-0.669zM2.389 9.042c-0.186 0.26-0.393 0.486-0.625 0.684l-0.005 0.004c-0.239 0.201-0.523 0.35-0.788 0.523 0.122 0.197 0.238 0.087 0.329 0.041 0.663-0.335 1.177-0.819 1.501-1.497 0.068-0.141 0.152-0.274 0.211-0.418 0.065-0.158 0.171-0.186 0.317-0.141 0.057 0.018 0.111 0.044 0.167 0.065 0.693 0.269 1.278 0.706 1.852 1.163 0.283 0.224 0.563 0.451 0.848 0.669 0.104 0.078 0.226 0.159 0.325-0.041-1.594-1.346-3.299-2.45-5.436-2.688-0.065 0.197 0.039 0.215 0.153 0.24 0.409 0.095 0.818 0.191 1.223 0.301 0.134 0.036 0.256 0.114 0.422 0.191-0.182 0.343-0.31 0.643-0.495 0.905zM3.875 2.91c0.117-0.128 0.338-0.096 0.55-0.099 0.113-0.002 0.221-0.007 0.174-0.207h-0.64c-0.019-0.222-0.065-0.415-0.044-0.6 0.029-0.234-0.078-0.382-0.257-0.577-0.134 0.415 0.117 0.782 0.026 1.145-0.047 0.017-0.080 0.038-0.113 0.039-0.587 0.023-1.173 0.048-1.761 0.063-0.274 0.008-0.295-0.027-0.299-0.316-0.011-0.697 0.105-1.381 0.242-2.062 0.021-0.105 0.066-0.207-0.057-0.296-0.168 0.029-0.177 0.161-0.198 0.292-0.099 0.646-0.281 1.283-0.181 1.949 0.029 0.188-0.003 0.379-0.165 0.47-0.128-0.435-0.086-0.315-0.045-0.195l0.168 0.556c0.838-0.267 1.68-0.359 2.6-0.162zM5.986 26.098c0.048 0 0.105 0.017 0.141-0.005 0.063-0.036 0.111-0.096 0.167-0.146-0.060-0.045-0.113-0.102-0.181-0.131-0.051-0.021-0.119-0.009-0.177-0.004-0.344 0.026-0.689 0.060-1.033 0.078-1.247 0.066-2.49-0.012-3.734-0.105-0.060-0.005-0.123-0.027-0.177-0.012-0.048 0.014-0.113 0.068-0.116 0.108-0.003 0.044 0.045 0.11 0.090 0.134 0.048 0.027 0.116 0.021 0.176 0.023 0.898 0.029 1.795 0.071 2.693 0.081 0.717 0.009 1.434-0.021 2.152-0.033-0.002 0.004-0.002 0.009-0.002 0.012zM0 25.893c0.063 0.048 0.123 0.102 0.191 0.143 0.078 0.047 0.191 0.12 0.233-0.004 0.021-0.060-0.063-0.197-0.134-0.238-0.072-0.041-0.186-0.001-0.283 0.002-0.002 0.033-0.005 0.066-0.008 0.098z"></path>
</symbol>

<symbol id="icon-text-vlasnoi" viewBox="0 0 10 32">
<path d="M4.621 29.53c-0.34-0.299-0.766-0.429-1.186-0.4-0.512 0.035-0.941 0.327-1.256 0.737-0.273 0.355-0.476 0.744-0.411 1.219 0.021 0.163-0.003 0.332 0 0.496 0.007 0.337 0.087 0.417 0.422 0.417 0.39 0 0.779-0.002 1.169-0.007 0.096-0.002 0.193-0.017 0.289-0.031 0.258-0.036 0.514-0.093 0.773-0.109 0.402-0.024 0.807-0.009 1.209-0.029 0.998-0.050 1.996-0.111 2.994-0.171 0.104-0.006 0.202-0.026 0.294-0.056l-0.008 0.002c0.275-0.088 0.387-0.223 0.38-0.517-0.012-0.546 0.023-1.088-0.127-1.64-0.165-0.606-0.51-0.867-1.068-0.924-0.658-0.067-1.331-0.053-1.991-0.002-0.43 0.035-0.899 0.128-1.080 0.631-0.059 0.163-0.085 0.337-0.141 0.572-0.113-0.080-0.192-0.13-0.261-0.19zM5.374 30.464c-0.059-0.17-0.136-0.334-0.179-0.505-0.033-0.13-0.050-0.272-0.033-0.403 0.059-0.427 0.284-0.713 0.74-0.759 0.261-0.026 0.526-0.038 0.789-0.043 0.374-0.007 0.752-0.024 1.125 0.003 0.258 0.019 0.524 0.074 0.761 0.173 0.131 0.055 0.247 0.221 0.298 0.363 0.192 0.54 0.23 1.102 0.192 1.671-0.019 0.273-0.077 0.348-0.341 0.379-0.357 0.042-0.718 0.068-1.078 0.094-0.72 0.052-1.437 0.107-2.157 0.143-0.831 0.042-1.662 0.062-2.493 0.090-0.070 0.002-0.141 0.002-0.207-0.012-0.211-0.042-0.517 0.138-0.618-0.081-0.126-0.273-0.183-0.618-0.146-0.917 0.078-0.621 0.792-1.233 1.409-1.29 0.686-0.062 1.458 0.448 1.674 1.109 0.021 0.062 0.042 0.126 0.064 0.194 0.174 0.012 0.263-0.029 0.2-0.208zM7.924 22.812c-0.711 0.111-1.423 0.202-2.132 0.323-0.638 0.109-1.286 0.195-1.901 0.384-0.634 0.194-1.256 0.408-1.925 0.455-0.054 0.004-0.105 0.064-0.19 0.119 0.084 0.066 0.129 0.112 0.185 0.144 0.516 0.278 1.063 0.457 1.653 0.495 0.221 0.014 0.441 0.050 0.66 0.081 0.26 0.036 0.516 0.102 0.775 0.112 0.472 0.021 0.946 0.005 1.418 0.012 0.152 0.002 0.303 0.029 0.455 0.040 0.566 0.040 1.134 0.099 1.7 0.102 0.228 0.002 0.5-0.009 0.714-0.273-0.352-0.164-0.672 0.031-0.986-0.016-0.328-0.050-0.665-0.030-0.998-0.047-0.327-0.017-0.653-0.042-0.974-0.064v-1.43c0.458-0.045 0.881-0.086 1.305-0.131 0.429-0.043 0.857-0.090 1.284-0.135-0.212-0.182-0.725-0.22-1.043-0.171zM6.092 24.696c-1.207 0.071-2.341-0.208-3.574-0.382 0.12-0.102 0.16-0.161 0.214-0.178 1.373-0.445 2.862-0.813 3.36-0.725v1.285zM4.299 15.171c-0.235 0-0.472-0.012-0.707 0.002-0.47 0.029-0.921 0.135-1.185 0.567-0.124 0.204-0.267 0.465-0.237 0.676 0.044 0.301 0.214 0.618 0.583 0.682 0.516 0.090 1.036 0.163 1.557 0.227 0.329 0.040 0.662 0.055 0.993 0.074 0.54 0.033 1.080 0.062 1.62 0.090 0.489 0.026 0.963-0.078 1.444-0.139 0.334-0.041 0.613-0.166 0.883-0.327 0.324-0.192 0.35-0.424 0.118-0.72-0.169-0.214-0.39-0.344-0.648-0.417-0.448-0.126-0.908-0.218-1.345-0.372-0.556-0.196-1.136-0.201-1.705-0.28-0.451-0.062-0.911-0.057-1.367-0.081-0.004 0.007-0.004 0.012-0.005 0.017zM8.607 17.048c-0.448 0.085-0.908 0.111-1.36 0.168-0.768 0.097-1.521-0.076-2.282-0.118-0.207-0.012-0.418-0.003-0.625-0.022-0.22-0.021-0.439-0.057-0.657-0.095-0.258-0.045-0.517-0.095-0.773-0.152-0.331-0.073-0.453-0.227-0.446-0.541 0.007-0.327 0.207-0.581 0.521-0.723 0.247-0.112 0.495-0.157 0.765-0.149 0.319 0.010 0.641-0.017 0.96-0.002 0.429 0.021 0.857 0.053 1.284 0.107 0.493 0.062 0.988 0.128 1.472 0.237 0.444 0.1 0.88 0.244 1.305 0.403 0.211 0.080 0.446 0.181 0.504 0.472-0.148 0.289-0.416 0.368-0.665 0.415zM2.397 18.179c0.402 0.010 0.805 0.009 1.207 0.005 0.43-0.004 0.859-0.026 1.289-0.017 0.256 0.005 0.512 0.054 0.82 0.090-0.176 0.549-0.005 1.083-0.19 1.616h-1.185c-0.39 0-0.779-0.009-1.169 0.003-0.378 0.010-0.761-0.048-1.131 0.040 0.005 0.227 0.127 0.201 0.237 0.199 1.069-0.017 2.139-0.033 3.209-0.050 0.43-0.007 0.862 0.007 1.289-0.035 0.678-0.064 1.35-0.183 2.035-0.119 0.070 0.007 0.148-0.067 0.221-0.104-1.054-0.168-2.083-0.040-3.146 0.029-0.124-0.572 0.057-1.084 0.094-1.629l2.946-0.266c-0.049-0.216-0.049-0.214-0.195-0.202-0.855 0.076-1.711 0.197-2.568 0.213-1.263 0.022-2.528-0.029-3.792-0.050-0.104-0.002-0.209 0-0.333 0 0.016 0.29 0.209 0.273 0.361 0.278zM5.060 8.408c0-0.106-0.002-0.161 0-0.214 0.017-0.496 0.037-0.993 0.050-1.491 0.004-0.123 0.004-0.258-0.24-0.242-0.033 0.647-0.066 1.299-0.101 1.947-0.88 0.17-1.733 0.291-2.618 0.163-0.040-0.349-0.091-0.676-0.113-1.005-0.021-0.313 0.202-0.626-0.010-1.026-0.070 0.136-0.118 0.206-0.143 0.284-0.212 0.657-0.036 1.325-0.066 2.013 0.373 0 0.73-0.005 1.089 0.002 0.514 0.009 1.026 0.009 1.535-0.1 0.16-0.035 0.329-0.035 0.495-0.040 0.583-0.017 1.177 0.035 1.749-0.060 0.526-0.088 1.043-0.13 1.571-0.135 0.129-0.002 0.258-0.042 0.399-0.064-0.071-0.801-0.136-1.553-0.211-2.306-0.007-0.076-0.082-0.144-0.143-0.246-0.049 0.080-0.087 0.112-0.085 0.144 0.033 0.536 0.059 1.072 0.117 1.605 0.021 0.206 0.080 0.403-0.052 0.649-1.066-0.125-2.127 0.31-3.221 0.123zM8.738 25.395c-2.218 0.502-3.043 0.715-3.866 0.932l1.408-0.316c-0.507 0.131-1.005 0.296-1.516 0.412-0.646 0.147-1.303 0.251-1.951 0.389-0.223 0.047-0.437 0.137-0.659 0.209 0.028 0.057 0.033 0.090 0.052 0.106 0.044 0.033 0.092 0.057 0.141 0.081 0.514 0.261 1.078 0.367 1.634 0.451 0.751 0.114 1.517 0.157 2.277 0.185 0.765 0.028 1.531 0.005 2.296-0.005 0.15-0.001 0.303-0.036 0.448-0.079 0.077-0.022 0.136-0.1 0.204-0.152l-0.026-0.099c-1.043 0.137-2.094 0.221-3.134 0.086-1.028-0.133-2.092-0.031-3.155-0.46 1.078-0.284 2.085-0.555 3.097-0.813 1.028-0.261 2.059-0.508 3.118-0.77-0.089-0.214-0.239-0.19-0.369-0.157zM8.546 4.177c-0.113-0.017-0.225-0.047-0.338-0.048-0.751-0.004-1.503-0.007-2.254 0.005-0.402 0.007-0.812 0.011-1.205 0.083-0.587 0.107-1.157 0.083-1.737-0.022-0.28-0.052-0.578-0.021-0.867-0.010-0.129 0.003-0.204 0.081-0.138 0.264 1.035 0.029 2.082 0.059 3.167 0.090 0.063 0.119 0.157 0.256 0.214 0.408 0.125 0.332-0.061 0.688-0.413 0.758-0.366 0.073-0.737 0.128-1.108 0.147-0.528 0.028-1.058 0.016-1.585 0.024-0.129 0.002-0.28-0.027-0.354 0.202 0.28 0.093 0.542 0.111 0.819 0.088 0.428-0.036 0.859-0.093 1.285-0.073 0.387 0.019 0.747-0.038 1.098-0.176 0.411-0.161 0.831-0.612 0.505-1.15-0.047-0.078-0.068-0.173-0.113-0.289 1.019-0.173 2.024-0.086 3.021-0.145-0.002-0.053 0.002-0.104 0.003-0.155zM2.578 21.058c-0.176 0.071-0.361 0.15-0.502 0.273-0.32 0.282-0.312 0.697 0.038 0.941 0.256 0.178 0.55 0.334 0.852 0.405 0.443 0.104 0.902 0.149 1.357 0.173 0.58 0.029 1.155 0.010 1.739-0.085 0.641-0.104 1.273-0.214 1.897-0.4 0.793-0.235 1.16-0.776 1.019-1.584-0.016-0.088-0.089-0.166-0.16-0.296-0.103 0.289-0.103 0.289-0.073 0.496 0.084 0.567-0.042 0.82-0.561 1.055-0.199 0.090-0.415 0.147-0.629 0.201-0.334 0.083-0.67 0.164-1.012 0.22-0.274 0.045-0.603 0.079-0.936 0.093l-0.017 0.001c-0.47 0.019-0.942 0.029-1.411 0.014-0.373-0.012-0.749-0.045-1.117-0.11-0.436-0.078-0.866-0.196-1.035-0.68 0.164-0.272 0.164-0.272 0.808-0.616-0.113-0.048-0.206-0.123-0.258-0.1zM2.386 10.774c0.712 0.017 1.397-0.19 2.097-0.261 0.686-0.069 1.367-0.208 2.052-0.301 0.202-0.028 0.411 0.010 0.615-0.010 0.289-0.030 0.577-0.078 0.862-0.13 0.073-0.014 0.136-0.076 0.27-0.156-0.331-0.137-0.589-0.102-0.813-0.036-0.394 0.118-0.793 0.123-1.195 0.145-0.124 0.007-0.244 0.042-0.368 0.062-0.218 0.035-0.435 0.071-0.655 0.1-0.659 0.086-1.319 0.163-1.977 0.256-0.411 0.059-0.819 0.081-1.226 0.047-0.026-0.256-0.045-0.474-0.073-0.688-0.026-0.209 0.134-0.458-0.181-0.688-0.026 0.185-0.066 0.311-0.058 0.436 0.038 0.574 0.085 1.148 0.136 1.721 0.014 0.15 0.044 0.303 0.091 0.445 0.044 0.131 0.127 0.24 0.293 0.164-0.068-0.339-0.132-0.657-0.211-1.040 0.134-0.026 0.239-0.069 0.341-0.066zM9.474 14.576c-0.085-0.023-0.169-0.059-0.254-0.066-0.138-0.011-0.277-0.004-0.416 0l-2.378 0.036c-0.569 0.010-1.141 0.042-1.71 0.031-0.988-0.017-1.974-0.060-2.96-0.092-0.115-0.003-0.223 0.009-0.24 0.215 0.118 0.016 0.233 0.040 0.348 0.042 0.611 0.009 1.223 0.004 1.834 0.021 0.277 0.007 0.552 0.055 0.829 0.080 0.247 0.021 0.498 0.053 0.746 0.043 0.817-0.035 1.632-0.086 2.449-0.128 0.249-0.012 0.512-0.057 0.745 0.002 0.315 0.080 0.604-0.028 0.906-0.024 0.052 0 0.106-0.035 0.159-0.052-0.019-0.038-0.038-0.073-0.057-0.107zM8.175 1.151c-0.458 0.009-0.916 0.026-1.374 0.033-0.167 0.004-0.335-0.028-0.5-0.021-1.387 0.064-2.773 0.133-4.16 0.204-0.085 0.005-0.171 0.045-0.355 0.095 0.178 0.076 0.26 0.142 0.34 0.14 0.831-0.026 1.663-0.061 2.494-0.101 0.652-0.031 1.303-0.085 1.955-0.107 0.514-0.017 1.029-0.003 1.543-0.003h0.451c-0.082-0.313-0.256-0.244-0.394-0.24zM2.059 3.103c0.089 0.012 0.178 0.036 0.268 0.036 0.707 0.002 1.413-0.002 2.12-0.005 1.247-0.005 2.489-0.171 3.738-0.090 0.014 0.002 0.028 0.002 0.042 0 0.101-0.014 0.249 0.031 0.251-0.137 0.002-0.159-0.138-0.144-0.244-0.15-0.054-0.003-0.11 0.012-0.166 0.014-1.024 0.022-2.047 0.007-3.074 0.126-0.848 0.097-1.718 0.010-2.578 0.012-0.125 0-0.251 0.043-0.376 0.066 0.007 0.043 0.012 0.085 0.019 0.128zM1.357 14.067c-0.087-0.031-0.172-0.095-0.225-0.074-0.312 0.125-0.617 0.267-0.925 0.403 0.267 0.158 0.794-0.036 1.15-0.329zM0.914 0.973c0.077-0.047 0.131-0.13 0.195-0.197-0.018-0.024-0.033-0.048-0.051-0.073-0.282 0.054-0.566 0.106-0.847 0.164-0.026 0.005-0.042 0.059-0.083 0.124 0.409 0.109 0.58 0.109 0.786-0.019zM1.026 1.747c-0.328-0.069-0.638-0.091-1.026 0.036 0.394 0.24 0.866 0.213 1.026-0.036zM0.075 2.903c0.068 0.073 0.127 0.192 0.206 0.206 0.202 0.034 0.383 0.225 0.639 0.102-0.132-0.424-0.53-0.251-0.761-0.41-0.028 0.034-0.056 0.067-0.084 0.102zM1.293 15.216c-0.131 0.090-0.27 0.17-0.389 0.273-0.096 0.085-0.361 0.054-0.228 0.367 0.23-0.135 0.444-0.252 0.646-0.386 0.040-0.026 0.036-0.116 0.052-0.176-0.026-0.026-0.054-0.052-0.082-0.078zM8.506 0.001c-0.047 0.005-0.108 0.104-0.115 0.166-0.005 0.035 0.091 0.121 0.131 0.116 0.063-0.009 0.115-0.076 0.211-0.145-0.105-0.068-0.171-0.144-0.227-0.137z"></path>
</symbol>

<symbol id="icon-ear" viewBox="0 0 21 32">
<path d="M15.145 0.899c-4.908-2.278-11.417-0.006-13.444 4.329-4.695 10.024 1.707 18.226 2.774 23.466s7.042 2.962 8.536 1.823 2.561-3.873 4.481-5.696c1.921-1.823 3.841-4.556 3.841-10.936s-1.28-10.708-6.189-12.986zM8.241 20.794c-1.707 1.521-3.132 3.947-3.132 3.947-0.283-1.823-1.99-3.036 0-4.255s3.132-3.036 0.283-4.556c-2.844-1.521-4.268-1.521-3.985-5.468 0.011-0.131 0.016-0.251 0.021-0.359-0.176-0.997 0.069-1.418 0 0 0.219 1.236 1.072 3.355 3.964 4.004 5.404 1.213 6.829 1.521 6.546 3.645-0.283 2.13-1.99 1.521-3.697 3.041zM15.358 21.705c-1.424 1.213-0.854 2.734-2.561 5.166s-1.424 0.911-0.571-2.432c0.854-3.343 2.561-3.645 3.697-5.77s0.283-3.036-0.571-6.681c-0.854-3.645-1.707-6.988-3.132-5.166s-1.99 2.124 0 4.255c1.99 2.13 1.136 3.645 1.136 3.645-1.425-2.432-3.697-2.432-5.975-3.947-2.278-1.521-1.136-6.989 3.132-7.9s7.965 1.823 7.112 4.556c-0.854 2.734-1.99 4.858 0 6.379s1.99 2.432 1.424 3.947c-0.566 1.515-2.273 2.734-3.692 3.947z"></path>
</symbol>

</svg>