<svg xmlns="http://www.w3.org/2000/svg" style="display:none">

<symbol id="icon-share" viewBox="0 0 18 18">
<path d="M14.5869 0C14.6478 0.00658853 14.7088 0.0131771 14.7697 0.0197854C14.9492 0.211862 14.3517 2.22129 14.1603 2.31488C14.1196 2.32148 14.079 2.32807 14.0384 2.33467C13.9733 2.30258 13.9533 2.29808 13.9165 2.23574C13.8186 2.10621 13.9299 1.84033 13.9774 1.70154C14.1246 1.27199 14.2969 0.269536 14.5869 0Z"/>
<path d="M17.0451 1.10798C17.0992 1.12776 17.1534 1.14755 17.2076 1.16733C17.2347 1.18711 17.2618 1.20691 17.2889 1.22669C17.2956 1.25966 17.3024 1.29264 17.3092 1.32562C17.1519 1.6769 16.0651 2.60128 15.7246 2.86887C15.5617 2.99686 15.5042 3.19387 15.237 3.22501C15.1828 3.17885 15.1286 3.13267 15.0745 3.08651C15.0812 3.03376 15.088 2.98099 15.0948 2.92823C15.1875 2.74179 15.3976 2.63272 15.5417 2.49295C16.024 2.02514 16.4965 1.50713 17.0451 1.10798Z"/>
<path d="M11.6416 2.33496C13.5666 2.30868 15.5933 4.51363 14.4248 6.3711C14.125 6.8474 13.6353 7.25061 13.084 7.47949C11.5866 8.10101 9.59093 7.58445 9.24415 6.27246C7.775 7.02413 6.3051 7.77568 4.83595 8.52735C4.84937 8.5404 4.86257 8.5543 4.87599 8.56738C5.12369 9.0804 5.58876 9.6259 5.36427 10.5059C5.27629 10.7365 5.1876 10.9685 5.09962 11.1992C6.52818 12.2344 7.95817 13.2695 9.38673 14.3047C9.40006 14.2982 9.41344 14.2916 9.42677 14.2852C9.6841 13.5194 11.0143 12.2704 12.2305 12.623C12.9659 12.8364 13.3653 13.2558 13.8555 13.6914C14.3671 14.1461 14.9683 14.9098 14.6484 15.9668C14.141 17.6415 11.5238 18.7348 9.77247 17.4111C8.9493 16.7887 9.07916 15.8157 9.22364 14.7012C7.76795 13.6461 6.31117 12.5902 4.85548 11.5352C4.83538 11.5482 4.81504 11.5612 4.79493 11.5742C4.42801 12.3285 2.73593 12.8286 1.58497 12.4844C0.694357 12.2179 0.213596 11.677 0.0410262 10.7041C-0.265836 8.97226 1.20548 7.44602 2.56056 7.30078C3.37741 7.21342 4.13453 7.81176 4.53126 8.19141C6.06818 7.40014 7.60567 6.60865 9.14259 5.81738C9.0968 4.17591 9.87262 3.14494 10.9502 2.55274C11.1804 2.4802 11.4114 2.40749 11.6416 2.33496ZM11.1133 13.1182C10.5682 13.3613 10.1326 13.9199 9.89454 14.4629C9.20752 16.0308 10.0512 17.0047 11.54 17.1934C12.8237 17.3558 14.2967 15.9013 13.8965 14.6016C13.6392 13.7667 12.7394 12.9802 11.6416 12.9795C11.4656 13.0256 11.2893 13.072 11.1133 13.1182ZM2.15431 7.7959C1.63354 7.98733 1.22204 8.42265 0.955089 8.86426C0.0600187 10.3456 0.663131 11.6768 2.31642 11.9307C3.67908 12.1398 5.19762 10.6683 4.77442 9.31934C4.50236 8.4531 3.64215 7.83998 2.6006 7.7168C2.45186 7.74313 2.30304 7.76957 2.15431 7.7959ZM11.3164 2.84961C10.7308 3.08439 10.2629 3.64994 10.0156 4.21485C9.37652 5.67525 10.0832 6.72648 11.458 6.94531C12.9 7.1747 14.4539 5.72183 13.9981 4.31348C13.7342 3.4984 12.824 2.74052 11.7227 2.75C11.5873 2.78296 11.4518 2.81665 11.3164 2.84961Z"/>
<path d="M17.7156 4.01643C17.7697 4.02302 17.8239 4.02962 17.8781 4.03621C17.9187 4.06918 17.9594 4.10217 18 4.13514C18.0021 4.30648 17.9667 4.32382 17.8984 4.41213C17.3677 4.57804 16.5609 5.15969 15.8465 4.94634C15.797 4.83877 15.7465 4.69331 15.8669 4.60999C16.0497 4.57701 16.2326 4.54403 16.4154 4.51106C16.8596 4.40394 17.3884 4.25777 17.7156 4.01643Z"/>
</symbol>

<symbol id="icon-button-next-prev" viewBox="0 0 32 32">
<path d="M16 0c8.837 0 16 7.163 16 16s-7.163 16-16 16c-8.837 0-16-7.163-16-16s7.163-16 16-16zM16.002 8.889c-0.465 0-0.903 0.187-1.222 0.51l-7.224 7.467c-0.29 0.302-0.444 0.693-0.444 1.088 0 0.22 0.049 0.435 0.139 0.641 0.265 0.583 0.866 0.96 1.528 0.96h14.446c0.66 0 1.264-0.38 1.528-0.96 0.26-0.581 0.143-1.261-0.306-1.729l-7.224-7.467c-0.317-0.325-0.756-0.51-1.22-0.51z"></path>
</symbol>

<symbol id="icon-quotes-small-part" viewBox="0 0 15 15">
<path d="M9.77146 0.0722626C10.3243 -0.062269 10.9582 0.0294126 11.5537 0.0410126C12.4491 0.058558 13.3429 0.0986564 14.2383 0.116208C14.8956 0.128348 15.0283 0.258032 14.9961 0.835934C14.9252 2.14214 14.876 3.44996 14.8008 4.75586C14.7791 5.12211 14.5875 8.44243 14.5361 10.5312C14.5176 11.3498 14.464 12.166 14.415 12.9785C14.3767 13.6411 14.2321 13.8052 13.5058 13.8926C11.8756 14.0817 10.2456 14.2631 8.60935 14.4131C7.20008 14.5406 5.78554 14.6172 4.37791 14.7217C3.29428 14.8029 2.2141 14.8924 1.13377 14.9893C0.347229 15.0605 -0.0348189 14.778 0.00193164 14.0732C0.0730358 12.7633 0.184241 11.4597 0.277322 10.1514C0.259742 10.1501 0.246073 10.1452 0.237283 10.1445C0.372015 6.07749 0.0803213 3.54218 0.17283 1.18554C0.196865 0.599316 0.368925 0.417955 1.05564 0.389645C2.57947 0.328324 4.11205 0.33264 5.6367 0.259763C7.01499 0.195798 8.40504 0.403988 9.77146 0.0722626ZM3.2031 3.93945V7.93359H5.20799C5.20799 8.17988 5.16956 8.41144 5.09275 8.62695C5.01598 8.84227 4.9005 9.04198 4.74705 9.22656C4.60879 9.39589 4.41667 9.53482 4.17088 9.64258C3.94045 9.75032 3.67147 9.8198 3.36424 9.85058V11.9746C4.16301 11.8976 4.86182 11.6741 5.46092 11.3047C6.07532 10.9353 6.54457 10.4357 6.86717 9.80468C7.2051 9.15823 7.37397 8.41903 7.374 7.58789V3.93945H3.2031ZM8.82615 3.93945V7.93359H10.8301C10.8301 8.27218 10.7612 8.58038 10.623 8.85742C10.5002 9.11902 10.3008 9.34266 10.0244 9.52734C9.74788 9.69667 9.40916 9.8044 9.00974 9.85058V11.9746C10.2232 11.8669 11.1911 11.4206 11.9131 10.6357C12.6504 9.85073 13.0195 8.83464 13.0195 7.58789V3.93945H8.82615Z"/>
</symbol>
</svg>